<svg width="64" height="64" viewBox="0 0 64 64" fill="none" xmlns="http://www.w3.org/2000/svg">
<path d="M16 52C17.4145 52 18.771 51.4381 19.7712 50.4379C20.7714 49.4377 21.3333 48.0812 21.3333 46.6667C21.3333 45.2522 20.7714 43.8957 19.7712 42.8955C18.771 41.8953 17.4145 41.3334 16 41.3334C14.5855 41.3334 13.229 41.8953 12.2288 42.8955C11.2286 43.8957 10.6667 45.2522 10.6667 46.6667C10.6667 48.0812 11.2286 49.4377 12.2288 50.4379C13.229 51.4381 14.5855 52 16 52ZM46.6667 52C48.0811 52 49.4377 51.4381 50.4379 50.4379C51.4381 49.4377 52 48.0812 52 46.6667C52 45.2522 51.4381 43.8957 50.4379 42.8955C49.4377 41.8953 48.0811 41.3334 46.6667 41.3334C45.2522 41.3334 43.8956 41.8953 42.8954 42.8955C41.8952 43.8957 41.3333 45.2522 41.3333 46.6667C41.3333 48.0812 41.8952 49.4377 42.8954 50.4379C43.8956 51.4381 45.2522 52 46.6667 52Z" stroke="#E42016" stroke-width="2.5" stroke-linejoin="round"/>
<path d="M19.7712 50.4379C18.771 51.4381 17.4145 52 16 52C14.5855 52 13.229 51.4381 12.2288 50.4379C11.2286 49.4377 10.6667 48.0812 10.6667 46.6667C10.6667 45.2522 11.2286 43.8957 12.2288 42.8955C13.229 41.8953 14.5855 41.3334 16 41.3334C17.4145 41.3334 18.771 41.8953 19.7712 42.8955C20.7714 43.8957 21.3333 45.2522 21.3333 46.6667C21.3333 48.0812 20.7714 49.4377 19.7712 50.4379Z" stroke="#E42016" stroke-width="2.5" stroke-linejoin="round"/>
<path d="M10.6667 46.6667H2.66666V14.6667H41.3333V46.6667M41.3333 46.6667H21.3333M41.3333 46.6667V24H52.7613L61.3333 35.3334V46.6667H53.0813" stroke="#E42016" stroke-width="2.5" stroke-linecap="round" stroke-linejoin="round"/>
</svg>
