<svg width="24" height="24" viewBox="0 0 24 24" fill="none" xmlns="http://www.w3.org/2000/svg">
<path fill-rule="evenodd" clip-rule="evenodd" d="M21.8808 12.2239C21.9177 12.2297 21.9546 12.2353 21.9915 12.2407H22.0397L21.8808 12.2239ZM21.9955 12.2413C22.3426 12.2511 21.8735 12.186 21.76 12.1735C22.4789 12.2423 22.3441 12.2261 22.0466 12.1905C21.8961 12.1725 21.704 12.1495 21.5598 12.13C21.699 12.1477 22.8421 12.1914 22.153 12.1241C22.3803 12.1438 22.6091 12.1385 22.8354 12.1082C22.6441 12.081 22.4529 12.0646 22.2616 12.0501C22.2253 12.0452 22.1776 12.039 22.1223 12.0319C21.9716 12.0123 21.7642 11.9854 21.5742 11.9575C21.9242 12.0047 23.3676 12.0319 22.1155 11.9866C22.6441 11.9738 22.5936 11.9557 22.3645 11.9357C22.7361 11.9357 23.1096 11.9357 23.4795 11.9158C23.4524 11.7197 23.4145 11.52 23.3784 11.3512L23.4452 11.3058C23.4235 11.269 23.4028 11.2317 23.3824 11.1947C23.3655 11.1642 23.3487 11.1338 23.3315 11.1043C23.314 10.9688 23.2969 10.8411 23.2805 10.7191C23.1839 9.99908 23.1141 9.47851 23.1511 8.74421C22.9382 8.72969 22.7235 8.71335 22.5106 8.69338C22.4668 9.05471 22.4481 9.41868 22.4547 9.78263C22.3183 9.5704 22.1977 9.34831 22.0938 9.11819L22.1263 8.9784V8.94391C22.1425 8.85495 22.157 8.76237 22.1678 8.6607C21.8968 8.63107 21.6273 8.58912 21.36 8.53497C21.3669 8.53571 21.3739 8.53647 21.3812 8.53725H21.3992C21.7817 8.55178 21.2982 8.48461 21.1827 8.4719C21.915 8.54067 21.7614 8.52221 21.4524 8.48509C21.3046 8.46733 21.1213 8.44531 20.9824 8.42651C21.1225 8.44436 22.279 8.48852 21.5626 8.41931C21.7747 8.43823 21.9883 8.437 22.2003 8.41562V8.40291C22.0307 8.37931 21.8593 8.36479 21.6879 8.35208C21.6552 8.3477 21.6125 8.34214 21.563 8.33571C21.4076 8.31551 21.1852 8.28659 20.995 8.25768C21.3559 8.30488 22.7993 8.33211 21.5363 8.28673C22.0668 8.27402 22.0144 8.25586 21.7871 8.23589H22.1678C22.1383 8.06073 22.0967 7.88785 22.0433 7.7185C22.0523 7.89024 22.0523 8.06234 22.0433 8.23408C22.0307 8.13968 22.0162 8.05254 21.9964 7.95269C21.9797 7.62405 21.9191 7.29918 21.816 6.98688C21.8014 6.89055 21.7696 6.79767 21.7222 6.71275C21.7222 6.71275 21.7384 6.73272 21.7492 6.7418C21.7167 6.64558 21.6392 6.45496 21.6392 6.45496C21.6252 6.4457 21.6119 6.43538 21.5995 6.4241C21.4074 6.02286 21.1804 5.63952 20.9211 5.27857C20.8916 5.27616 20.8622 5.27363 20.8328 5.27098C20.8849 5.3917 20.9204 5.5077 20.9319 5.60898C20.888 5.58408 20.8046 5.5011 20.6942 5.3913C20.6478 5.34509 20.5966 5.29413 20.5415 5.24075C20.2328 5.20447 19.9258 5.15484 19.6213 5.09198L19.8061 5.11155L19.7249 5.10247C19.6792 5.09736 19.641 5.09308 19.6095 5.08954C19.6051 5.08862 19.6006 5.0877 19.5962 5.08677C19.6395 5.09138 19.691 5.09691 19.7426 5.10244L19.7429 5.10247C20.1254 5.11518 19.6419 5.04801 19.5264 5.0353C20.2453 5.10402 20.1104 5.08788 19.8129 5.05226C19.6625 5.03425 19.4704 5.01125 19.3261 4.99173C19.4654 5.00948 20.6094 5.05323 19.9185 4.98572C20.0374 4.99609 20.1567 4.99963 20.2759 4.99633C20.2484 4.97267 20.2205 4.9492 20.1922 4.92609C20.1412 4.92193 20.0903 4.91803 20.0395 4.91414L20.0334 4.91367C20.0077 4.91022 19.9758 4.90598 19.9393 4.90112C19.784 4.88046 19.5451 4.84867 19.3406 4.81927C19.4953 4.84003 19.8612 4.85693 20.1159 4.86548C20.1121 4.86255 20.1083 4.85962 20.1045 4.8567C20.0423 4.85424 19.9685 4.85145 19.8818 4.84831C19.9627 4.84637 20.0301 4.8443 20.0853 4.84211C20.0646 4.82653 20.0437 4.81124 20.0228 4.79632C19.7814 4.79121 19.5413 4.76964 19.3027 4.7412C19.381 4.74805 19.5171 4.75652 19.6638 4.76565C19.7809 4.77293 19.9047 4.78063 20.0114 4.78828C19.7426 4.59907 19.4551 4.47137 19.2035 4.54151C19.1268 4.57295 19.0578 4.6205 19.0009 4.68098C18.944 4.74146 18.9006 4.81348 18.8736 4.8922C18.8466 4.97093 18.8366 5.05455 18.8443 5.13747C18.8521 5.22038 18.8773 5.30068 18.9184 5.37298C19.1406 5.46769 19.2908 5.50856 19.4118 5.54149C19.7223 5.62596 19.8408 5.65822 20.4899 6.41322C20.5439 6.47655 20.596 6.53512 20.6456 6.59078C21.0245 7.01661 21.2517 7.27185 21.0068 8.18362C21.0873 8.1897 21.2006 8.19673 21.3209 8.20421C21.4848 8.21439 21.6619 8.22539 21.7871 8.23589C21.5242 8.23589 21.2644 8.21503 21.0064 8.18537C20.9604 8.35644 20.8978 8.55058 20.8165 8.77327C20.8907 7.75163 20.6175 7.355 20.4554 7.11973C20.4245 7.0749 20.3977 7.03592 20.378 6.9996C20.2878 6.83984 19.8602 6.37146 19.595 6.9996C19.5233 7.16679 19.6138 7.27663 19.7346 7.42332C19.8815 7.60158 20.0731 7.83425 20.0731 8.29036C20.0732 8.35211 20.0737 8.41353 20.0742 8.47457C20.0817 9.48128 20.0885 10.3802 18.4674 10.8047C18.5093 10.7609 18.5486 10.7203 18.5854 10.6824C18.55 10.6683 18.5585 10.5979 18.599 10.5996C18.6181 10.6003 18.6298 10.6161 18.6331 10.6338C18.7244 10.5407 18.7996 10.4661 18.8623 10.4039C19.1665 10.1022 19.1768 10.092 19.3135 9.67916C19.4074 9.4014 19.3785 8.49732 18.9725 9.24891C18.6009 9.93147 17.7945 10.0386 17.0566 10.1366L17.0564 10.1366C16.8348 10.1664 16.5563 10.1103 16.2583 10.0503C15.7194 9.94174 15.1169 9.82041 14.673 10.1711C14.1817 10.5688 13.5809 10.338 13.1361 10.1671C12.9129 10.0813 12.729 10.0107 12.618 10.0422C12.4537 10.089 12.3347 10.183 12.2199 10.2737C11.9603 10.4789 11.7221 10.667 11.0303 10.2528C10.4456 9.90536 9.87238 10.111 9.46033 10.2589C9.33203 10.3049 9.21935 10.3454 9.12682 10.3618C9.58707 9.5023 10.3983 9.53785 10.928 9.56106C11.3348 9.57889 11.5757 9.58944 11.3641 9.18174C11.3154 9.0916 11.2078 9.08458 11.0534 9.0745C10.9901 9.07038 10.919 9.06574 10.8408 9.05466C11.3803 8.71154 11.9288 8.90398 12.3564 9.2362C12.3781 9.25254 12.867 9.45042 13.024 9.1418C13.1623 9.17349 13.2901 9.26706 13.417 9.36001C13.5882 9.48535 13.7579 9.60954 13.9495 9.57931C14.1967 9.53937 14.323 9.13272 13.5887 9.08189C13.7197 8.92941 13.7935 8.90565 13.9193 8.86518C14.0031 8.8382 14.1101 8.80378 14.2725 8.7188C14.595 8.54878 14.8331 8.73026 15.0752 8.91488C15.3708 9.14027 15.6726 9.37034 16.1417 8.97115C16.2716 8.86041 16.3636 8.61351 15.8494 8.53C16.3719 8.12687 16.7544 8.36663 17.1145 8.59233C17.309 8.71425 17.497 8.83206 17.697 8.84225C18.4854 8.87856 18.821 7.92909 18.7795 7.32456C18.7596 7.04317 18.166 5.56541 17.9171 5.36753C16.2789 4.07091 15.9292 4.07578 14.5895 4.09442C14.3179 4.0982 14.0057 4.10255 13.6338 4.09674L13.9947 3.5158L13.9983 3.52306C14.2851 3.07828 15.3298 2.41202 15.7736 2.61535C15.2251 2.89129 15.0519 3.18358 15.4435 3.30158C15.6674 3.36968 15.7993 3.16633 15.9426 2.94567C16.1582 2.61334 16.3994 2.24173 17.0186 2.69886C17.0291 2.70666 17.0396 2.7141 17.0501 2.72119C17.0339 2.60773 17.0381 2.49127 17.0636 2.37752C17.1033 2.19598 17.2314 2.04349 17.3938 2.22321C17.4649 2.32234 17.5122 2.43674 17.532 2.5574C17.5481 2.65603 17.5454 2.75663 17.5243 2.85389C17.5733 2.85306 17.6231 2.84949 17.6745 2.84452C17.6937 2.79186 17.7592 2.80578 17.8049 2.83014C17.8074 2.82984 17.81 2.82954 17.8125 2.82924C17.8837 2.82088 17.9582 2.81214 18.0371 2.80602C17.9019 2.67676 17.8122 2.53333 17.8701 2.37389L17.8773 2.37571C17.9627 2.0883 18.4087 2.44733 18.612 2.61099C18.645 2.63754 18.6716 2.65895 18.6892 2.67162C18.8007 2.75747 18.9083 2.84811 19.0119 2.94329C19.189 3.00899 19.3835 3.10198 19.5991 3.23181C19.3286 2.90128 19.0607 2.57129 18.8029 2.23411C18.5968 1.98525 18.3737 1.7511 18.1353 1.53335C17.8601 1.29598 17.5439 1.11139 17.2025 0.988725C17.1774 0.983805 17.1531 0.975245 17.1304 0.96331C17.1442 0.964311 17.1581 0.964311 17.1719 0.96331L16.9536 0.923371C16.9214 0.925525 16.89 0.927577 16.8598 0.929551C16.7627 0.935895 16.678 0.941433 16.6216 0.946971C16.7203 0.934552 16.8208 0.927335 16.9196 0.920236L16.9265 0.91974C16.8539 0.904565 16.7822 0.885168 16.7118 0.861646H16.7082C16.6987 0.858346 16.6891 0.855045 16.6793 0.85168C16.646 0.84024 16.6105 0.82806 16.5729 0.81263C16.1023 0.587261 15.5983 0.440705 15.0808 0.378744C14.7858 0.292029 14.484 0.231286 14.1786 0.197201C13.9186 0.171929 13.661 0.159836 13.4041 0.147771C13.0888 0.132968 12.7745 0.118206 12.4574 0.079199C11.2663 -0.0481646 11.1142 -0.0084367 10.6871 0.103098C10.5055 0.150543 10.2741 0.210982 9.89177 0.27708C9.54716 0.351512 7.95041 0.821707 5.54355 2.17964C4.97375 2.56035 4.43115 2.98074 3.91974 3.43773C3.79525 3.47949 3.67436 3.5285 3.55889 3.58115C4.04174 2.89524 4.59842 2.2651 5.21879 1.70219C5.54536 1.3627 5.86471 1.09584 6.22555 0.834415C6.05945 0.928637 5.89197 0.996523 5.72396 1.06462C5.62006 1.10674 5.51595 1.14894 5.41184 1.1975C5.28297 1.25885 5.15822 1.32858 5.03837 1.40627C4.28945 1.90454 3.60779 2.49828 3.0104 3.17268C2.94906 3.28524 2.88952 3.39598 2.82998 3.51035C2.66898 3.70681 2.48848 3.90654 2.31624 4.09712C2.30704 4.1073 2.29786 4.11746 2.2887 4.12759C2.25685 4.16499 2.22694 4.20337 2.19683 4.24201C2.18602 4.25589 2.17518 4.26981 2.16421 4.28372C2.71994 4.3189 3.27354 4.38216 3.82294 4.47325C3.87627 4.44812 3.9336 4.43122 3.99303 4.42359C4.13754 4.40504 4.28365 4.44267 4.40152 4.52881C4.61821 4.70627 4.60882 5.05457 4.59571 5.54094C4.59005 5.75112 4.58369 5.98709 4.59457 6.2462C4.61983 6.84166 4.81469 7.30459 5.64645 7.56056C5.89363 7.635 6.03796 7.62592 6.11194 7.56056C6.16426 7.24105 5.85574 6.32244 5.35777 6.28977C5.50342 6.07506 5.67425 5.87879 5.86656 5.7052C6.23643 5.32215 6.04698 5.09703 5.79439 5.18417C5.74331 5.20153 5.68807 5.22232 5.63138 5.24367C5.53391 5.28036 5.43213 5.31868 5.33973 5.34393C5.2874 5.35846 5.54 4.98085 5.68434 4.81564C5.77368 4.7129 6.0274 4.64732 6.28187 4.58155C6.81876 4.44278 7.35905 4.30314 6.36634 3.81171C6.72718 3.59205 8.41414 3.78448 7.57698 5.04983C6.53954 6.62199 7.55713 7.10489 8.06773 6.05195C8.21493 5.74357 8.39652 5.45305 8.609 5.18599C8.609 5.18713 8.59772 5.21503 8.57811 5.26357C8.3796 5.75475 7.32708 8.35898 8.46827 6.72002C8.49994 6.67441 8.5575 6.582 8.6325 6.46162C8.93358 5.97835 9.51559 5.04414 9.83047 4.87555C9.65862 5.22598 9.02799 6.29952 8.58533 7.0531C8.32625 7.49414 8.13155 7.82559 8.13088 7.83832C8.11825 8.27039 9.51834 7.97629 9.60675 6.50036C9.63724 6.33032 9.69257 6.16575 9.77093 6.01201C9.65546 6.24075 10.1462 7.2828 10.2527 5.60354C10.2671 5.37479 10.5251 4.49613 10.5576 4.57056C10.4861 4.79911 10.4318 5.03275 10.3952 5.2695C10.3627 5.99567 11.0141 6.15906 10.9599 4.98629C10.9166 4.07858 11.1133 3.7155 11.7231 3.26346C11.7104 3.3201 11.6489 3.42385 11.5691 3.55853C11.4571 3.74761 11.309 3.99763 11.2089 4.26375C10.9581 4.94454 11.7664 5.22593 11.8747 4.17117C11.9631 3.31066 12.2536 3.00022 12.932 2.45015C13.0186 2.37935 13.5093 2.05983 13.715 2.07072C13.5562 2.23058 13.3888 2.38149 13.2134 2.52276C11.5788 3.86799 12.2391 4.98992 12.8165 3.86255C13.282 2.95483 13.4407 2.65892 14.3591 2.20688C14.9836 1.93565 15.6686 1.83665 16.3438 1.92004C16.3073 1.92695 16.2712 1.93376 16.2355 1.94049C14.9023 2.19208 14.1289 2.33802 13.3469 3.64288C12.8807 4.41959 13.416 4.37559 14.078 4.32118C14.3614 4.29788 14.668 4.27268 14.9292 4.30914C16.1471 4.47797 17.7439 5.30581 18.0776 6.51851C18.084 6.54144 18.0905 6.56517 18.0973 6.58961C18.2652 7.194 18.5544 8.23468 17.7168 8.47372C17.3963 8.56535 17.3846 8.25142 17.3684 7.81598C17.3524 7.38865 17.3322 6.84428 17.0113 6.45134C15.678 4.81746 13.2062 5.09159 14.388 5.74514C15.2081 6.19486 14.9472 6.42657 14.6232 6.7143C14.3769 6.933 14.0942 7.18406 14.222 7.58779C14.3478 7.98151 14.5708 7.87148 14.8233 7.7469C14.8351 7.74108 14.847 7.73523 14.8589 7.7294C14.8411 7.78546 14.8291 7.83221 14.8186 7.87335C14.783 8.01205 14.7638 8.08692 14.5955 8.23953C14.0991 8.69209 13.895 8.29156 13.7263 7.96025C13.5816 7.67622 13.4628 7.44308 13.208 7.84195C13.0983 8.01422 13.1761 8.0927 13.3059 8.22384C13.3512 8.2696 13.4029 8.32178 13.4552 8.38658C13.3217 8.48461 12.6884 8.41563 12.5982 8.10156C12.443 7.55693 12.6523 7.33727 12.959 7.1412C13.2315 6.52577 12.3311 6.60928 12.277 6.9415C12.2425 7.06925 12.2261 7.20127 12.2283 7.33364C11.936 7.12849 11.7971 6.99778 11.8981 6.69098C12.0244 6.317 12.8309 5.78326 13.1016 6.03561C13.1225 6.0544 13.1561 6.09975 13.1989 6.15745C13.3918 6.41753 13.7705 6.92831 14.0127 6.38598C14.1534 6.06829 13.4877 5.41473 12.9031 5.55089C11.8293 5.80278 11.3241 6.47018 10.8125 7.14597C10.4835 7.58065 10.1518 8.0188 9.66448 8.35209C9.34054 8.58183 8.99413 8.7777 8.63065 8.93665L8.6487 8.94028C7.81656 8.94808 7.71007 9.16856 7.60532 9.38544C7.49044 9.62329 7.37765 9.85682 6.31221 9.8008C5.91806 9.77969 5.98068 9.84931 6.15107 10.0388C6.33244 10.2404 6.63593 10.5778 6.64058 11.0861C6.61406 11.0182 6.59143 10.9562 6.57051 10.8989C6.44057 10.5429 6.37686 10.3684 5.85935 10.0713C6.1787 10.5996 6.43309 11.2695 6.08307 12.041C6.12818 11.5418 6.20035 9.94421 5.3722 10.0205C5.29697 10.1214 5.38513 10.3244 5.48974 10.5654C5.57329 10.7578 5.66732 10.9743 5.69697 11.1823C5.74027 11.4891 5.83228 12.3279 5.24771 12.7763C5.55804 12.081 5.70779 11.5164 5.42813 10.9191C5.2874 10.6068 5.10879 10.3636 5.16833 10.4925C5.17348 10.5635 5.18257 10.6466 5.19273 10.7395C5.28201 11.5564 5.45358 13.1262 3.75741 13.7929C3.8089 13.7382 3.88296 13.676 3.96989 13.6031C4.41909 13.2261 5.21183 12.561 5.00775 11.1388C4.96085 10.8085 4.92339 10.5628 4.90546 10.4453C4.90347 10.4322 4.90173 10.4208 4.90023 10.411C4.89891 10.3975 4.89743 10.3865 4.89588 10.3781C4.89215 10.3571 4.89394 10.3696 4.90023 10.411C4.92987 10.7112 4.88658 12.2206 3.95407 12.8253C4.00262 12.7307 4.06319 12.6295 4.12803 12.5212C4.43665 12.0054 4.84196 11.328 4.50797 10.4398C4.47201 10.4703 4.4739 10.5512 4.4767 10.6709C4.48457 11.0073 4.4996 11.6499 3.69967 12.3369C3.68343 12.352 3.83418 12.1025 3.98055 11.8601C4.04555 11.7525 4.10968 11.6463 4.15795 11.5654C4.31492 11.3022 4.44663 10.0586 4.32755 10.0876C4.30608 10.0876 4.26456 10.2225 4.20697 10.4096C4.15809 10.5684 4.09763 10.7648 4.02805 10.9481C3.79169 11.5708 3.51023 11.8395 2.92565 12.0265C2.95566 11.998 2.98511 11.9703 3.01402 11.943C3.50668 11.4784 3.84318 11.1611 4.10563 9.99505C4.09396 9.98196 4.06423 9.99917 4.02376 10.0226C3.90143 10.0934 3.68094 10.221 3.56436 9.74089C3.51235 9.51664 3.60763 9.45084 3.69296 9.3919C3.79415 9.32202 3.88137 9.26178 3.69246 8.95844C3.5427 8.71699 3.51203 8.17418 3.77184 8.00897C3.93304 7.90842 3.96803 8.08026 4.00497 8.26166C4.05939 8.52895 4.11805 8.81701 4.59097 8.28492C4.8202 8.02724 4.8219 8.15142 4.82433 8.32948C4.82681 8.5102 4.83004 8.74641 5.0727 8.6952C5.20227 8.6688 5.24686 8.558 5.27999 8.47567C5.31974 8.37688 5.343 8.31907 5.47685 8.49732C5.74929 8.86041 6.59728 8.25587 5.38844 8.09974C4.78763 8.0235 4.25538 7.25013 4.12547 6.69642C3.93061 5.90308 3.47234 5.84136 3.18005 6.01019C2.88777 6.17903 2.70013 6.5294 3.14217 6.65467C3.32501 6.65467 3.32521 6.58245 3.32546 6.49734C3.32566 6.42623 3.32589 6.34612 3.43264 6.29158C3.63111 6.32789 3.61307 6.76722 3.41461 6.8471C3.1133 6.97055 2.61894 6.9288 2.62976 6.27524C2.64239 5.58538 3.43265 5.26587 4.07315 5.78145C4.55849 6.16995 4.48632 4.92094 4.32394 4.76118C4.19206 4.63123 4.02214 4.63513 3.89249 4.69299C3.89079 4.69375 3.88909 4.69451 3.88741 4.69529C3.87744 4.69988 3.86772 4.70479 3.85829 4.70998C3.96339 4.72161 4.07264 4.73403 4.17774 4.74665C4.09918 4.73798 3.97572 4.73004 3.83595 4.72313C3.80508 4.74252 3.77796 4.76489 3.75606 4.78871C3.91016 4.79848 4.06346 4.81155 4.21563 4.82653C4.11514 4.81841 3.93612 4.80938 3.74625 4.79991C3.65706 4.90674 3.67401 5.03723 3.9252 5.06073C4.0082 5.06073 4.1778 5.07706 4.0912 5.19325C3.8277 5.54416 3.46966 5.13539 3.54786 4.78992C3.42208 4.78345 3.30186 4.77685 3.20706 4.77025C3.32189 4.77025 3.43651 4.77296 3.55078 4.7778C3.55654 4.75545 3.56416 4.73341 3.57379 4.7119C3.00066 4.69047 2.43885 4.68683 3.51198 4.7176C2.86606 4.73031 2.92921 4.75028 3.20706 4.77025C2.80291 4.76117 2.39696 4.77025 1.99101 4.78296C1.88403 4.94199 1.78585 5.10684 1.69691 5.27675C1.22462 6.15167 0.949291 7.12038 0.89042 8.11426H0.948157C0.949713 8.10287 0.953872 8.092 0.960304 8.0825C0.966735 8.073 0.975267 8.06512 0.98523 8.05949C0.995192 8.05387 1.00632 8.05064 1.01773 8.05006C1.02914 8.04948 1.04053 8.05157 1.051 8.05617C1.08045 8.06934 1.1055 8.09077 1.12317 8.11789C1.22728 8.11789 1.33139 8.11931 1.43544 8.12072C1.64332 8.12354 1.85094 8.12636 2.05776 8.11789C1.77991 8.13786 1.71676 8.15783 2.36087 8.16872L1.79795 8.18869C1.99461 8.18869 2.75961 8.16691 3.02303 8.13605C2.78209 8.16514 2.51699 8.19423 2.33274 8.21445C2.27554 8.22072 2.22614 8.22615 2.18767 8.23045C1.95312 8.24497 1.72037 8.25949 1.48762 8.28673C1.76023 8.31771 2.03503 8.32353 2.30859 8.30412C1.49751 8.37107 2.87123 8.32612 3.03927 8.30851C2.87729 8.32593 2.66655 8.34649 2.49163 8.36355C2.1015 8.4016 1.88952 8.42227 2.79389 8.35208C2.65989 8.36434 2.11295 8.42727 2.4856 8.41868C2.50778 8.41911 2.52997 8.41869 2.55213 8.41743C2.5703 8.41585 2.5875 8.41434 2.60377 8.41292C2.43884 8.44063 2.26875 8.46413 2.09746 8.48642C2.06309 8.62088 2.01282 8.7507 1.94771 8.87311C1.85216 9.13457 1.78383 9.40531 1.74383 9.68097C1.72218 9.81713 1.70593 9.95147 1.6897 10.0876C1.68472 10.1324 1.68146 10.1825 1.67804 10.2352C1.66161 10.4878 1.64148 10.7975 1.41004 10.841C1.16953 10.8863 1.23328 10.4307 1.26273 10.2203C1.26752 10.1861 1.2714 10.1583 1.27292 10.1403C1.28669 9.99587 1.30776 9.85226 1.33607 9.71002C1.39335 9.39884 1.5045 9.10021 1.66444 8.82772C1.73623 8.70298 1.83117 8.59328 1.94409 8.50458C1.58325 8.54815 1.2224 8.57901 0.848926 8.60261C0.798407 8.75692 0.75691 8.91305 0.719021 9.08006C0.653506 9.31791 0.607641 9.56079 0.581897 9.80623C0.56205 10.0223 0.549421 10.2347 0.536791 10.4471C0.552617 10.465 0.563231 10.487 0.567465 10.5106C0.571186 10.5322 0.569684 10.5543 0.563088 10.5752C0.556492 10.596 0.544994 10.615 0.529572 10.6304C0.529572 10.6826 0.526048 10.7348 0.522524 10.787C0.520409 10.8183 0.518295 10.8496 0.516941 10.881C0.549651 11.1173 0.559924 11.3562 0.547616 11.5944C0.537693 11.6725 0.527318 11.7501 0.516944 11.8277C0.50657 11.9053 0.496196 11.9829 0.486273 12.061C0.908464 12.0773 1.33607 12.0846 1.76006 12.0773C1.48221 12.0973 1.41906 12.1155 2.06317 12.1282C0.544006 12.1735 2.30133 12.1463 2.72894 12.0991C2.50113 12.1266 2.25172 12.1532 2.0688 12.1727C1.9982 12.1802 1.9375 12.1866 1.89178 12.1917C1.65903 12.2062 1.42628 12.2226 1.19353 12.2498C1.46789 12.2801 1.74434 12.2858 2.0196 12.2666C1.19571 12.3326 2.57498 12.2892 2.74338 12.2698H2.7524C2.57798 12.2891 2.34703 12.3119 2.16514 12.3299C1.80136 12.3658 1.63378 12.3823 2.50702 12.3133C2.36629 12.326 1.78532 12.3932 2.2436 12.3805H2.26525C2.26972 12.3801 2.27414 12.3797 2.2785 12.3793C1.68366 12.4744 1.08422 12.5378 0.482666 12.5693C0.482666 12.6582 0.494112 12.7457 0.505538 12.833C0.506942 12.8438 0.508346 12.8545 0.509728 12.8652C0.510922 12.9443 0.518159 13.0232 0.531378 13.1012C0.539671 13.1725 0.545128 13.2499 0.550646 13.328C0.558335 13.437 0.566141 13.5476 0.581897 13.6459C0.634297 13.8963 0.643922 13.9576 0.676156 14.0028C0.701637 14.0385 0.741243 14.0641 0.827271 14.1651C0.866964 14.2776 0.908462 14.3847 0.951764 14.4955C0.990895 14.6361 1.02137 14.8159 1.04905 14.9793C1.0571 15.0268 1.06492 15.073 1.07265 15.1163C1.09844 15.1311 1.12648 15.1416 1.15564 15.1472L1.19353 15.3287H1.37395C1.36434 15.2913 1.35452 15.2538 1.3447 15.2163C1.32505 15.1412 1.3054 15.0661 1.28735 14.9911C1.29862 14.9158 1.30043 14.7979 1.30246 14.6662C1.30855 14.2702 1.31656 13.7493 1.58866 13.8855C1.61001 13.8985 1.62997 13.9137 1.6482 13.9309C1.67887 14.3484 1.73842 14.7678 1.80698 15.1799C1.80698 15.1799 1.65181 15.0474 1.66444 15.0946C1.67301 15.1776 1.69368 15.259 1.72578 15.336H2.31938C2.04153 15.356 1.97838 15.3759 2.62249 15.3887C1.10513 15.4322 2.86065 15.4068 3.28825 15.3596C3.06041 15.3871 2.81095 15.4137 2.62802 15.4332C2.55746 15.4407 2.49679 15.4471 2.45109 15.4522C2.24721 15.4649 2.04153 15.4794 1.83584 15.5012V15.5176C2.09533 15.5386 2.35604 15.5393 2.6156 15.5197C1.77222 15.5865 2.88853 15.5536 3.22049 15.5337C3.39521 15.3773 3.58695 15.2533 3.72674 15.1781C3.9816 15.041 4.10511 14.7312 4.22211 14.4379C4.30804 14.2224 4.39045 14.0158 4.5188 13.8928C4.71185 13.7076 4.86882 13.6404 5.26756 13.5896C4.71185 14.3248 5.86476 16.1257 6.89137 14.3339C6.95227 14.2273 7.00849 14.1243 7.06154 14.0271C7.32281 13.5484 7.50704 13.2109 7.79349 13.2773C7.39295 13.8764 7.75199 14.4991 8.32394 13.8056C8.99623 12.9977 9.22749 13.1638 9.45478 13.3271C9.57274 13.4119 9.68964 13.4959 9.86656 13.4425C9.9985 13.403 10.0843 13.2639 10.1762 13.1149C10.3883 12.771 10.6326 12.3748 11.5517 13.0322C12.0702 13.4039 12.5988 13.2252 12.9886 13.0934C13.0939 13.0578 13.1891 13.0256 13.2712 13.0086C12.6918 13.858 11.9422 13.6839 11.4265 13.5642C11.0637 13.4799 10.8167 13.4226 10.8264 13.7675C10.8592 14.9139 10.4462 14.7959 10.0484 14.6823C9.78907 14.6082 9.53619 14.536 9.4173 14.8168C9.13404 15.494 10.0307 15.3814 10.2599 15.3124C9.77357 16.1326 9.11583 15.9267 8.63585 15.7764C8.36257 15.6909 8.1469 15.6234 8.0533 15.7735C7.85844 16.0858 8.10923 16.2274 8.54947 16.1856C8.46688 16.795 7.85403 16.7857 7.31675 16.7775C6.97371 16.7722 6.66148 16.7675 6.53774 16.9245C6.45024 17.0364 6.9832 17.2968 7.54647 17.5069C7.71793 17.3427 7.84183 17.352 7.74166 17.5773C7.79862 17.5971 7.85519 17.6162 7.91076 17.6343C8.9067 17.952 10.5359 18.1481 11.0122 16.6812C11.0319 16.6206 11.0505 16.5377 11.0711 16.4465C11.1335 16.1691 11.2133 15.8145 11.3911 15.7735C11.2757 16.28 11.669 16.6794 11.7827 15.897C11.8657 15.376 11.9992 15.0764 12.1435 15.0982C11.9793 15.8897 12.5531 15.8207 12.4412 14.8386C12.4392 14.7711 12.451 14.7038 12.4757 14.641C12.5005 14.5782 12.5378 14.5212 12.5853 14.4734C12.6327 14.4256 12.6894 14.3881 12.7518 14.3632C12.8143 14.3383 12.8811 14.3265 12.9482 14.3285C12.7443 14.6952 12.8435 14.8912 13.1052 14.8095C13.2403 14.7659 13.294 14.5689 13.3495 14.3653C13.4163 14.1205 13.4856 13.8662 13.7024 13.8583C13.6789 14.2994 13.9874 14.2286 14.0235 13.8437C14.0686 13.3572 14.2761 12.6637 14.9148 12.6419C14.6297 12.8362 14.3158 13.3282 14.4962 13.4752C14.8021 13.4111 14.9541 13.164 15.1407 12.8607C15.3238 12.5628 15.5403 12.2109 15.9685 11.9248C16.2635 11.7023 16.6269 11.5912 16.9951 11.6108C15.7267 11.8613 15.1692 13.5369 15.9956 12.8108C16.0453 12.7674 16.0953 12.7232 16.1457 12.6787C16.4107 12.4447 16.6853 12.2022 16.9851 12.0215C16.9735 11.9161 17.0539 11.696 17.0762 11.6434C17.1033 11.5799 17.244 11.2804 17.3216 11.3439C17.3992 11.4074 17.2693 11.7106 17.2422 11.7723H17.244C17.237 11.788 17.2046 11.8555 17.1644 11.923C17.2734 11.869 17.386 11.8244 17.5027 11.7921C17.4914 11.718 17.4969 11.6445 17.549 11.5872C17.6272 11.501 17.6233 11.5558 17.6183 11.6263C17.6172 11.642 17.616 11.6584 17.6157 11.6743C17.6157 11.6835 17.6136 11.7013 17.611 11.7233C17.6094 11.7366 17.6076 11.7515 17.606 11.7671C17.6455 11.7589 17.6854 11.7521 17.7258 11.7469C18.4597 11.6315 19.2109 11.7155 19.9017 11.9902C18.9153 11.8529 18.2093 11.9021 17.7131 12.0367L17.7222 12.6782C17.7222 12.6782 17.638 12.3247 17.572 12.0791C16.9162 12.296 16.6807 12.6693 16.6541 12.8979C16.6345 13.066 16.9011 12.9947 17.3242 12.8817C17.9157 12.7236 18.8129 12.4838 19.6618 12.7018C20.4719 12.9161 20.7263 13.7276 20.7443 14.1542C20.3329 13.2592 19.779 12.9324 19.014 12.8434C18.0903 12.7363 16.849 13.3681 18.1119 13.3681C18.5985 13.3545 19.0712 13.5321 19.4299 13.8632C19.7885 14.1943 20.005 14.6528 20.0334 15.1418C20.0352 15.8516 19.9847 15.9805 19.8241 16.3436C19.8663 15.921 19.8663 15.4953 19.8241 15.0728C19.7393 14.5536 19.1385 13.5297 18.4313 13.8274C18.0231 13.9992 18.3157 14.1681 18.6708 14.3729C18.9309 14.523 19.2246 14.6925 19.3009 14.8967C19.7105 15.9841 18.9834 17.3185 18.6821 17.6815C18.6929 17.6144 19.0158 16.6831 19.0537 16.5923C19.2955 16.0241 19.2504 14.9639 18.6406 14.6407C18.2715 14.4462 18.4535 15.1154 18.5899 15.6171C18.6496 15.8366 18.7006 16.024 18.6929 16.0931C18.6815 16.1881 18.6742 16.2769 18.6673 16.3611C18.6259 16.8658 18.5979 17.2065 17.7908 17.7433C18.4728 17.0589 18.6532 15.848 18.1119 15.8153C18.0317 15.9255 18.003 16.1029 17.9692 16.3112C17.8806 16.8574 17.7575 17.6163 16.5819 17.9357C17.3163 17.4564 17.7547 16.7956 17.5833 16.4525C17.5548 16.4568 17.4726 16.5366 17.3623 16.6437C17.1442 16.8555 16.8162 17.174 16.5765 17.2259C16.3726 17.4035 16.2908 17.522 16.2287 17.6119C16.1517 17.7233 16.1052 17.7908 15.8945 17.8722C15.9703 17.4746 15.8548 17.3675 15.752 17.3675C15.6355 17.3696 15.5634 17.4702 15.4703 17.6003C15.3254 17.8026 15.1293 18.0765 14.6352 18.1626C14.7218 17.8631 14.6189 17.8286 14.4547 17.785C14.0422 17.674 14.0379 17.8765 14.0325 18.1344C14.0271 18.3909 14.0205 18.7021 13.6103 18.8144C13.6284 18.5548 13.558 17.6652 13.1052 18.4513C13.0584 18.6184 12.9823 18.7613 12.9171 18.8836C12.7912 19.1199 12.7063 19.2792 12.9536 19.388C13.6536 19.6924 13.7234 19.5689 13.8312 19.3779C13.9073 19.2431 14.0024 19.0747 14.3519 18.9995C14.3298 19.039 14.2924 19.0832 14.2531 19.1295C14.1226 19.2836 13.9722 19.4613 14.2996 19.566C14.5479 19.6108 14.6471 19.3052 14.7494 18.9897C14.821 18.7688 14.8942 18.5431 15.0213 18.4295C15.3841 18.1061 15.36 18.3722 15.3375 18.6205C15.317 18.8475 15.2977 19.0597 15.577 18.7926C16.0822 18.3079 16.8453 18.2952 16.9338 18.5784C17.1142 19.1539 16.7497 19.2955 16.4791 19.3227C16.7642 19.2265 16.8724 18.3387 15.9523 19.1085C15.3651 19.6008 15.587 19.6457 15.8863 19.7061C15.9456 19.7181 16.008 19.7307 16.0677 19.7475C15.9764 19.8973 15.7299 19.9826 15.4859 20.067C15.1947 20.1677 14.9071 20.2672 14.8914 20.4737C15.2247 20.5867 15.5831 20.4686 15.7543 20.4121C15.8306 20.387 15.8697 20.3741 15.853 20.3992C15.4639 20.9849 14.9192 20.9728 14.4938 20.9634C14.2229 20.9574 14.0004 20.9525 13.8972 21.1036C13.8395 21.1908 14.72 21.5974 15.7664 21.0092C15.2222 21.5551 14.6321 21.5544 14.1657 21.5539C14.1513 21.5539 14.137 21.5538 14.1228 21.5538C13.5749 21.5603 13.2759 21.3602 13.111 21.2499C13.0435 21.2047 12.9984 21.1746 12.968 21.1799C12.443 21.2743 12.8165 22.0694 14.5161 21.9714C13.0998 22.2691 12.7479 21.926 12.425 21.4594C11.7033 20.4355 11.236 21.0837 12.2445 22.0694C11.9739 22.0694 11.6018 21.7407 11.3951 21.4261C11.1314 21.2403 10.8703 21.0437 10.6135 20.844V20.8367C10.6129 20.8367 10.6104 20.8352 10.6064 20.8323C10.6102 20.9378 10.6257 21.0495 10.655 21.1653C10.4535 20.9798 10.3526 20.7909 10.321 20.6039C10.3056 20.5914 10.2904 20.5791 10.2756 20.567C10.1955 20.5019 10.1275 20.4467 10.1083 20.4319C9.83177 20.2247 9.58839 19.9761 9.38658 19.6948C9.22751 19.4459 9.41231 19.6445 9.52384 19.7644C9.54893 19.7914 9.57032 19.8144 9.58324 19.8274C9.59679 19.841 9.62197 19.8677 9.65416 19.9018C9.78914 20.0448 10.0473 20.3184 10.0866 20.3066V20.2921V20.2032C10.1616 20.2719 10.2367 20.3404 10.3119 20.4089C10.3415 19.9888 10.6719 19.5876 10.9365 19.2663C11.1522 19.0044 11.3242 18.7956 11.254 18.6728L11.245 18.651C11.1842 18.5993 11.1092 18.5673 11.03 18.5592C10.9509 18.5511 10.8711 18.5673 10.8011 18.6056C10.6152 18.7219 10.4584 18.8796 10.3429 19.0667C10.3229 18.9641 10.3285 18.858 10.3591 18.7581C10.5554 18.0085 11.4042 17.9264 11.9669 17.872C12.2628 17.8434 12.4797 17.8224 12.4809 17.716C12.4845 17.4074 12.2698 17.4455 12.0443 17.4873C12.3077 17.1061 12.9121 16.9626 13.4101 17.0952C14.2454 17.3185 13.7673 16.7393 13.0655 16.7902C13.1214 16.5996 13.9207 16.5106 14.3483 16.7303C14.6279 16.8737 15.2522 17.0334 15.1241 16.5887C15.0483 16.3545 14.747 16.2655 14.222 16.2256C14.5131 15.9803 15.065 16.0995 15.6111 16.2174C16.1888 16.3422 16.7601 16.4655 17.0095 16.1548C17.7204 15.2761 17.9116 14.3974 17.1232 13.7947C16.5152 13.3372 15.2991 13.6876 14.6478 14.3394C14.3712 14.6161 14.0683 14.9776 13.7459 15.3623C13.446 15.7204 13.1292 16.0984 12.8011 16.447C12.78 16.488 12.7709 16.493 12.7692 16.4808C12.6298 16.6277 12.4885 16.769 12.3456 16.9009C11.5463 17.638 10.8372 18.0247 9.95677 18.2062C8.00259 18.5984 7.43974 18.295 5.84134 17.4332C5.8046 17.4134 5.76731 17.3933 5.72944 17.3729C5.39899 17.7478 6.66103 18.2968 7.12741 18.4997C7.1805 18.5228 7.22327 18.5414 7.25222 18.5548C7.60004 18.715 7.98549 18.7954 8.46076 18.8049C8.43287 18.7684 8.43857 18.7677 8.47517 18.8052C8.84212 18.8114 9.2625 18.7756 9.76011 18.7018C8.92937 19.1628 8.57993 19.1482 8.19235 19.1321C8.04877 19.1261 7.89996 19.1199 7.71951 19.1375C7.75151 19.5587 8.59594 19.5478 8.97452 19.539C8.95664 19.5065 8.93823 19.4744 8.91928 19.4425C8.91928 19.4425 8.79299 19.2482 8.84892 19.2954C8.92162 19.3739 8.99189 19.4544 9.05964 19.5371C9.13793 19.5356 9.17464 19.537 9.14486 19.5496C9.12598 19.5575 9.10717 19.5651 9.08843 19.5725C9.25504 19.7793 9.406 19.9986 9.53994 20.2286C9.57453 20.2873 9.60586 20.3479 9.63376 20.4101C9.73616 20.605 9.7582 20.8326 9.69511 21.0437C9.63396 21.1292 9.54432 21.1898 9.44251 21.2143C9.38016 21.2315 9.3159 21.2407 9.25126 21.2416C8.73809 21.2103 8.86585 21.0422 9.03816 20.8154C9.11605 20.7129 9.20304 20.5984 9.24405 20.4791L9.23322 20.4718C9.25076 20.3378 9.2428 20.2017 9.20977 20.0706C9.20977 20.0616 9.20976 20.0525 9.20074 20.0434C9.14723 19.892 9.08304 19.7447 9.00871 19.6027C7.69665 20.0791 6.75121 19.4145 6.17112 19.0067C5.82637 18.7643 5.61067 18.6127 5.52376 18.8452C5.374 19.241 5.52376 19.4625 6.38799 20.1396C5.29591 19.9324 4.90657 19.2987 4.73012 18.7376C4.53801 18.7278 4.33473 18.7173 4.19037 18.7073C4.36989 18.7073 4.5484 18.7139 4.72616 18.7249C4.71906 18.702 4.7123 18.6791 4.70587 18.6565C4.09409 18.6295 3.32881 18.6216 4.49529 18.6564C3.84937 18.6691 3.91252 18.6873 4.19037 18.7073H3.62565C3.99174 19.1515 4.28255 19.5178 4.52537 19.8236C4.72413 20.074 4.89074 20.2838 5.04017 20.4628C5.76101 20.4937 6.47952 20.5654 7.19229 20.6775C7.18362 20.6768 7.17472 20.676 7.16556 20.6752C7.14233 20.674 7.11907 20.6736 7.09582 20.6741C7.08599 20.6743 7.07616 20.6747 7.06633 20.6752C7.13802 20.6792 7.20971 20.6852 7.28069 20.6916C7.29524 20.694 7.30979 20.6964 7.32433 20.6988H7.35681C7.33155 20.6964 7.30617 20.694 7.28069 20.6916C7.2588 20.6881 7.23691 20.6846 7.21502 20.6811C7.2754 20.6861 7.33201 20.6908 7.37528 20.6944C7.49951 20.7047 7.51384 20.7059 7.19229 20.6775M6.84474 20.7838C6.20442 20.7264 7.48188 20.7689 7.6509 20.7859C7.47759 20.7667 7.24865 20.744 7.06755 20.7261C6.70193 20.69 6.53133 20.6731 7.40733 20.7423C7.27169 20.7301 6.72041 20.6673 7.09582 20.6741M6.84474 20.7838C6.5994 20.7678 6.35308 20.7721 6.10828 20.7968C6.34103 20.824 6.57377 20.8404 6.80652 20.8549C6.85605 20.8604 6.92372 20.8677 7.00285 20.8761C7.18315 20.8954 7.423 20.921 7.64368 20.9475C7.21608 20.9003 5.45876 20.8731 6.97792 20.9184C6.33201 20.9311 6.39515 20.9511 6.67301 20.9693C6.29773 20.9693 5.91883 20.9693 5.54355 20.9802C6.0672 21.47 6.61437 21.6797 8.16845 22.2752C8.44029 22.3794 8.74294 22.4954 9.08166 22.6267C8.98906 22.5867 8.90596 22.5375 8.82286 22.4884C8.74405 22.4418 8.66523 22.3951 8.57828 22.3563C8.39335 22.2718 8.21022 22.1847 8.02709 22.0976C7.84396 22.0104 7.66082 21.9233 7.47589 21.8389L7.59316 21.8679C8.09105 22.1117 8.61054 22.308 9.14481 22.4543C9.16147 22.4636 9.17811 22.473 9.19473 22.4824C9.26619 22.5226 9.33736 22.5626 9.40895 22.6018C9.52178 22.629 9.63521 22.6539 9.74923 22.6758L9.9044 22.7375C9.90542 22.7309 9.90542 22.7241 9.9044 22.7175C9.84305 22.6467 9.96755 22.6503 10.0054 22.6558C10.0453 22.6558 10.0568 22.6238 10.073 22.5785C10.0855 22.5439 10.1007 22.5015 10.1335 22.4597C10.1776 22.4038 10.1948 22.4178 10.2288 22.4454C10.2533 22.4653 10.2864 22.4922 10.3446 22.5051C10.4056 22.5187 10.4357 22.5179 10.4621 22.5172C10.4959 22.5163 10.5237 22.5155 10.6026 22.5451H10.6189C10.6928 22.5687 10.7037 22.5795 10.6387 22.6195C10.604 22.6416 10.5755 22.6722 10.5557 22.7084C10.5312 22.7527 10.4982 22.7915 10.4585 22.8227C10.4188 22.8539 10.3734 22.8768 10.3248 22.89C10.3069 22.8991 10.2882 22.9064 10.2689 22.9118C10.2625 22.913 10.2551 22.9146 10.2469 22.9163C10.1366 22.9392 9.87609 22.9934 9.908 22.821C9.91584 22.7981 9.91584 22.7731 9.908 22.7502C9.74509 22.7627 9.5827 22.7395 9.43157 22.6836C9.37477 22.6776 9.31889 22.6634 9.2657 22.6413C9.28685 22.652 9.30853 22.6617 9.33065 22.6703C9.27814 22.6594 9.22763 22.6405 9.1809 22.614C9.18543 22.6307 9.18543 22.6482 9.1809 22.6649C8.93732 22.6395 8.69736 22.6104 8.4592 22.5741V22.5923C8.2564 22.4773 8.03222 22.4056 7.80066 22.3817C7.78864 22.3825 7.77658 22.3825 7.76457 22.3817C7.84035 22.4143 7.91793 22.4452 8.00092 22.4779L7.89628 22.4488C7.98188 22.4969 8.00378 22.4989 8.02697 22.5009C8.04142 22.5022 8.05637 22.5035 8.08753 22.516L7.9901 22.5051L8.06047 22.5378L8.41229 22.6503L8.81644 22.8664L8.85252 22.9027C9.20791 23.0285 9.5566 23.1727 9.89718 23.3348C9.5634 23.2258 9.26389 23.1333 8.99506 23.0516L9.2693 23.3457C9.36413 23.3833 9.45809 23.4223 9.55193 23.4612C9.7295 23.5348 9.90665 23.6083 10.0884 23.6724H9.75104H9.73841H9.73119C9.71942 23.6665 9.69903 23.6566 9.6736 23.6442C9.59763 23.6073 9.47671 23.5485 9.40643 23.509C9.53372 23.6554 9.58537 23.7215 9.65194 23.7645C9.72407 23.8111 9.81372 23.8306 10.0361 23.8957C9.94281 23.8418 10.0086 23.8644 10.0619 23.8827C10.0775 23.8881 10.0921 23.8931 10.1013 23.8957H10.0722C10.6254 24.0395 11.0825 24.0046 11.5816 23.9665C11.7629 23.9526 11.9498 23.9383 12.1489 23.932C12.0298 23.8721 12.4141 23.9175 12.4231 23.9193H12.8796C13.2103 23.9294 13.5412 23.9094 13.8683 23.8594C13.2543 23.8594 14.3075 23.6262 14.5575 23.5708C14.5829 23.5652 14.6001 23.5614 14.6062 23.5599C14.6062 23.5599 14.415 23.7087 14.323 23.7723C14.4547 23.7168 14.5765 23.6401 14.6838 23.5454C14.7957 23.5218 14.9057 23.4963 15.0158 23.4673C14.8534 23.5617 14.6874 23.6488 14.5178 23.7269C15.2567 23.5215 15.9644 23.2162 16.6216 22.8192C16.6176 22.8192 16.5966 22.8279 16.5672 22.8401C16.4622 22.8836 16.2498 22.9717 16.3203 22.8682C16.4262 22.7704 16.5396 22.6812 16.6595 22.6013L16.7497 22.5559L16.9301 22.4833C16.8681 22.5842 16.7968 22.679 16.7172 22.7665C16.7984 22.7176 16.8867 22.6716 16.9572 22.6349C17.1028 22.559 17.1729 22.5225 16.9489 22.5812C17.2643 22.4907 17.5578 22.335 17.8106 22.1239C17.9549 22.0077 18.083 21.8897 18.2165 21.7608C18.0741 21.8729 17.9253 21.9765 17.7709 22.0712C17.4928 22.2647 17.1764 22.3953 16.8435 22.4543C17.3848 22.2328 16.5079 22.5087 16.452 22.5287C16.4648 22.5219 16.5024 22.5043 16.5513 22.4813C16.7238 22.4003 17.0375 22.2531 16.9067 22.2799C17.1731 22.2009 17.4219 22.0703 17.6392 21.8951C17.6626 21.8842 17.7943 21.7735 17.8196 21.7481C18.0232 21.6106 18.2185 21.4608 18.4042 21.2997C18.5244 21.2016 18.6447 21.1018 18.765 21.0001C18.3735 20.9892 17.9802 20.9838 17.5904 21.0001C17.8845 20.9802 17.9513 20.962 17.2675 20.9493C18.8751 20.9039 17.0149 20.9311 16.562 20.9783C16.8976 20.9402 17.2837 20.9021 17.4497 20.8858C17.4819 20.8836 17.514 20.8815 17.5462 20.8794C17.7598 20.8654 17.9744 20.8513 18.1877 20.8277C17.898 20.7975 17.6064 20.7921 17.3159 20.8114C18.2008 20.7446 16.7324 20.7882 16.5548 20.8059H16.5458C16.7307 20.7865 16.9757 20.7637 17.1685 20.7457C17.5532 20.7098 17.7299 20.6934 16.8056 20.7623C16.9536 20.7496 17.5778 20.6824 17.0835 20.6951C17.0194 20.7003 16.9564 20.7055 16.9026 20.7099C16.9074 20.7092 16.9122 20.7085 16.917 20.7077C16.9569 20.7043 17.0049 20.7001 17.0618 20.6951L17.1665 20.6861L16.935 20.705C17.8247 20.5716 18.7212 20.4895 19.6202 20.4591C19.6329 20.446 19.6455 20.4328 19.6581 20.4195C19.703 20.3722 19.7485 20.3244 19.8006 20.2776C19.8443 20.2384 19.8463 20.2357 19.8581 20.2198C19.8643 20.2113 19.8733 20.1992 19.8927 20.1759C19.9113 20.1549 19.9286 20.1333 19.9459 20.1118C19.9569 20.0979 19.968 20.0841 19.9793 20.0706L19.9197 20.1305L20.1705 19.7675C20.3473 19.506 20.5193 19.2422 20.6865 18.9759C20.7528 18.8937 20.8215 18.8073 20.8921 18.7185C20.9695 18.6212 21.0492 18.5211 21.1304 18.4204C20.7927 18.3855 20.457 18.3335 20.1245 18.2647L20.2374 18.2766C20.2343 18.2757 20.2313 18.2746 20.2282 18.2734C20.1761 18.2678 20.1338 18.2632 20.1 18.2596C20.0989 18.2593 20.0977 18.2591 20.0965 18.2588H20.0932C19.9517 18.2436 19.9705 18.2455 20.0507 18.2537C20.1003 18.2587 20.1733 18.2661 20.2463 18.2734C20.6288 18.2861 20.1453 18.2189 20.0298 18.2062C20.7487 18.2749 20.6138 18.2588 20.3163 18.2231C20.1658 18.2051 19.9738 18.1821 19.8295 18.1626C19.9633 18.1797 21.0236 18.2223 20.4957 18.1644C20.6986 18.1808 20.9028 18.1766 21.1051 18.1517C20.9376 18.1277 20.77 18.1135 20.6012 18.0993C20.5792 18.0974 20.5571 18.0955 20.535 18.0936C20.4015 18.0773 20.0947 18.0374 19.8439 18.0011C20.194 18.0483 21.6374 18.0755 20.3852 18.0301C20.9157 18.0174 20.8633 17.9974 20.6342 17.9793H21.4822C21.8828 17.4624 22.2446 16.9162 22.5647 16.3454C22.6279 16.1893 22.6892 16.0313 22.7452 15.8716C22.2277 15.8366 21.7132 15.7675 21.2047 15.6647L21.392 15.6846L21.309 15.6755C21.2636 15.6704 21.2256 15.6661 21.1942 15.6626C21.1906 15.6619 21.187 15.6611 21.1834 15.6604C21.2258 15.6649 21.276 15.6702 21.327 15.6755C21.7095 15.6882 21.226 15.621 21.1105 15.6083C21.8294 15.677 21.6946 15.6609 21.3971 15.6253C21.2466 15.6073 21.0545 15.5843 20.9103 15.5648C21.0495 15.5825 22.1922 15.6262 21.5038 15.5589C21.731 15.5786 21.9597 15.5733 22.1859 15.543C21.9946 15.5157 21.8034 15.4994 21.6121 15.4849C21.5757 15.48 21.528 15.4738 21.4727 15.4666C21.322 15.4471 21.1147 15.4202 20.9247 15.3923C21.2765 15.4395 22.7199 15.4667 21.466 15.4213C21.9964 15.4086 21.9441 15.3905 21.7149 15.3705C22.1173 15.3705 22.5232 15.3705 22.9238 15.3469C23.0338 14.9947 23.1313 14.6389 23.2088 14.2794C23.2088 14.3156 23.2152 14.3518 23.2214 14.3872C23.2233 14.398 23.2252 14.4086 23.2269 14.4192C23.3219 14.0561 23.4007 13.6876 23.4632 13.3136C23.4632 13.2881 23.4553 13.2616 23.4476 13.2355C23.4448 13.2264 23.4421 13.2173 23.4398 13.2083C23.4777 12.9288 23.5029 12.6492 23.5174 12.3696C23.0079 12.3583 22.4996 12.3154 21.9955 12.2413C21.9894 12.2411 21.9831 12.2409 21.9766 12.2407C21.9047 12.2333 21.8344 12.2258 21.7852 12.2206C21.6789 12.2093 21.6711 12.2084 21.9585 12.2407H21.9766M21.7149 15.3705C21.5901 15.36 21.4123 15.3489 21.2479 15.3387C21.1012 15.3295 20.9651 15.3211 20.8868 15.3142C21.161 15.3469 21.4371 15.3705 21.7149 15.3705ZM21.6121 15.4849C21.742 15.503 21.724 15.503 21.383 15.4667L21.6121 15.4849ZM20.9842 15.425C21.1177 15.4431 21.2494 15.4558 21.383 15.4667L20.9842 15.425ZM21.5038 15.5589C21.4874 15.5573 21.47 15.5556 21.4515 15.5539C21.4689 15.5557 21.4864 15.5573 21.5038 15.5589ZM21.1716 15.6592H21.1773C21.1793 15.6596 21.1814 15.66 21.1834 15.6604C21.1794 15.66 21.1755 15.6596 21.1716 15.6592ZM21.1716 15.6592H21.1636C21.0293 15.644 21.052 15.6465 21.1358 15.6554C21.1467 15.6565 21.1588 15.6578 21.1716 15.6592ZM21.1636 15.6592H21.152L21.2047 15.6647C21.2012 15.664 21.1977 15.6633 21.1942 15.6626C21.1832 15.6614 21.173 15.6602 21.1636 15.6592ZM20.6342 17.9793C20.5009 17.967 20.3075 17.9553 20.1343 17.9448C20.0003 17.9367 19.8785 17.9293 19.8061 17.923C20.0803 17.9557 20.3563 17.9793 20.6342 17.9793ZM20.535 18.0936C20.6595 18.1118 20.6396 18.11 20.304 18.0755L20.535 18.0936ZM19.9035 18.0337C20.037 18.0519 20.1705 18.0646 20.304 18.0755L19.9035 18.0337ZM20.4957 18.1644C20.4611 18.1606 20.4197 18.1564 20.3708 18.1517C20.4123 18.1568 20.454 18.1611 20.4957 18.1644ZM20.0932 18.2588H20.0695L20.1245 18.2647C20.1163 18.263 20.1082 18.2613 20.1 18.2596C20.0977 18.2593 20.0955 18.2591 20.0932 18.2588ZM16.8739 20.7115C16.8871 20.7103 16.9014 20.7091 16.917 20.7077C16.923 20.7068 16.929 20.7059 16.935 20.705L16.8561 20.7115H16.8739ZM16.8739 20.7115C16.7013 20.7265 16.7293 20.7242 16.8357 20.7154C16.8502 20.7142 16.8663 20.7129 16.8835 20.7115H16.8922C16.8957 20.711 16.8991 20.7104 16.9026 20.7099C16.8961 20.7104 16.8897 20.711 16.8835 20.7115H16.8739ZM17.3159 20.8114C17.2913 20.813 17.2668 20.8148 17.2422 20.8168C17.2684 20.8149 17.2929 20.8131 17.3159 20.8114ZM17.4497 20.8858L17.1538 20.9039C17.5923 20.8676 17.6157 20.8676 17.4497 20.8858ZM16.6396 20.9457L17.1538 20.9039C16.9824 20.9148 16.811 20.9275 16.6396 20.9457ZM17.5904 21.0001C17.2314 21.0074 16.8742 21.0237 16.5223 21.0564C16.6236 21.0495 16.8007 21.041 16.9917 21.0317C17.2023 21.0216 17.4296 21.0106 17.5904 21.0001ZM16.9067 22.2799C16.8866 22.284 16.856 22.2922 16.8128 22.3054C16.8443 22.2976 16.8756 22.2891 16.9067 22.2799ZM16.9489 22.5812C16.9269 22.587 16.9021 22.5937 16.8742 22.6013C16.8992 22.595 16.9241 22.5883 16.9489 22.5812ZM10.1013 23.8957C10.1092 23.898 10.113 23.8984 10.1101 23.8957H10.1013ZM9.75104 23.6724C9.99316 23.74 10.2417 23.7813 10.4926 23.7959C10.3784 23.7672 10.2658 23.7326 10.1552 23.6924L9.75104 23.6724ZM6.67301 20.9693C6.83494 20.9816 7.07104 20.9933 7.28231 21.0038C7.44533 21.0119 7.59357 21.0192 7.68158 21.0255C7.34779 20.9929 7.0122 20.9693 6.67301 20.9693ZM6.80652 20.8549C6.64775 20.8367 6.6712 20.8386 7.08437 20.8731L6.80652 20.8549ZM7.56971 20.9148C7.40914 20.8967 7.24675 20.8839 7.08437 20.8731L7.56971 20.9148ZM7.00137 20.7968C6.94922 20.7915 6.89701 20.7872 6.84474 20.7838C6.88792 20.7877 6.93982 20.792 7.00137 20.7968ZM4.69912 18.6324C4.6979 18.6279 4.69669 18.6235 4.6955 18.6191C4.69534 18.6185 4.69518 18.6179 4.69503 18.6174C4.68331 18.574 4.6727 18.5314 4.66295 18.4897C4.28782 18.4782 3.93608 18.4764 4.45231 18.518C4.17686 18.4987 3.9002 18.5043 3.62565 18.5348C3.85839 18.562 4.09114 18.5765 4.32389 18.5911C4.35485 18.5945 4.39263 18.5986 4.43567 18.6033C4.51032 18.6115 4.60081 18.6214 4.69912 18.6324ZM4.60174 18.611L4.32389 18.5911C4.16511 18.5747 4.18676 18.5747 4.60174 18.611ZM4.65598 18.4593C4.65497 18.4549 4.65398 18.4504 4.65299 18.446C4.09172 18.4033 4.28149 18.4222 4.61445 18.4552C4.62806 18.4565 4.64192 18.4579 4.65598 18.4593ZM4.64327 18.4016C4.64572 18.413 4.64822 18.4245 4.65078 18.4361C4.49833 18.4162 4.3953 18.396 4.64327 18.4016ZM4.63949 18.3838C4.62679 18.3236 4.61558 18.2659 4.60504 18.2118C4.5538 17.9483 4.51832 17.7658 4.40333 17.7614C4.0603 17.7483 4.01171 17.8915 4.04241 18.3011C4.24192 18.3248 4.44098 18.3524 4.63949 18.3838ZM3.7214 18.2663C3.47558 18.0644 3.41795 17.7264 3.53909 16.8973C3.59683 16.5088 3.57879 16.3418 3.50482 16.3272C2.94911 16.2092 2.99602 16.654 3.02308 16.8356C2.54564 16.3626 2.84115 15.8744 3.21759 15.5363C3.07438 15.5513 2.90669 15.5678 2.76129 15.5822C2.36047 15.6217 2.12901 15.6445 3.04649 15.572C2.91305 15.5842 2.37013 15.6467 2.73356 15.6403C2.75728 15.6409 2.78102 15.6405 2.80472 15.6392C2.82321 15.6375 2.8407 15.6359 2.85721 15.6344C2.54697 15.6867 2.22317 15.7265 1.89358 15.759C1.89358 15.7689 1.89758 15.7795 1.90153 15.79C1.90408 15.7968 1.9066 15.8034 1.90801 15.8098C1.90868 15.8213 1.90868 15.8328 1.90801 15.8443C1.99823 16.3054 2.09746 16.752 2.20932 17.215C2.1833 17.174 2.15771 17.1304 2.13252 17.0876C2.10531 17.0414 2.07859 16.9959 2.05235 16.9554C2.06663 17.0059 2.07611 17.0452 2.08395 17.0777C2.11076 17.189 2.11828 17.2202 2.23277 17.3439C2.23277 17.3584 2.23278 17.3711 2.2418 17.3838L2.15339 17.2967C2.15339 17.2967 2.23458 17.5109 2.28149 17.6126C2.28387 17.6177 2.2862 17.6227 2.28846 17.6276C2.33087 17.7194 2.35469 17.7709 2.40779 17.9484C2.4014 17.9548 2.40278 17.9609 2.40366 17.9647C2.40476 17.9696 2.40504 17.9708 2.38794 17.9647C2.40273 17.9942 2.42025 18.0221 2.44026 18.0483C2.44428 18.0604 2.44849 18.0736 2.45288 18.0875C2.46227 18.1171 2.4725 18.1493 2.48357 18.179C2.72714 18.1917 2.97071 18.208 3.20526 18.2262C3.09896 18.0535 3.00895 17.8711 2.93643 17.6815C3.01703 17.8731 3.11741 18.0557 3.23593 18.2262C3.39797 18.237 3.55981 18.2504 3.7214 18.2663ZM2.87825 15.6308C3.09652 15.6118 3.24947 15.5987 2.85721 15.6344C2.86423 15.6332 2.87125 15.632 2.87825 15.6308ZM2.93849 15.6204L2.70548 15.6392C2.71484 15.6397 2.72419 15.6401 2.73356 15.6403C2.7485 15.6401 2.76497 15.6397 2.78307 15.6392C2.8152 15.6364 2.84738 15.6335 2.87825 15.6308C2.89839 15.6274 2.91847 15.6239 2.93849 15.6204ZM4.64227 18.3969C4.64233 18.3972 4.64239 18.3975 4.64245 18.3977L4.59272 18.3932C4.60924 18.3944 4.62575 18.3956 4.64227 18.3969ZM10.609 20.6783C10.8501 20.896 11.0925 21.1127 11.336 21.3283C11.2646 21.1984 11.2275 21.0774 11.245 20.9911C11.2766 20.8313 11.3316 20.7144 11.3781 20.6155C11.4589 20.4435 11.5142 20.326 11.3767 20.1324C11.0869 19.7372 10.6528 20.0728 10.609 20.6783ZM2.73075 15.434L2.45109 15.4522C2.2946 15.4703 2.31564 15.4685 2.72689 15.4344L2.73075 15.434ZM2.31938 15.336C2.65677 15.3306 2.99416 15.3124 3.32614 15.2797C3.22251 15.2881 3.03583 15.2974 2.83984 15.3072C2.65368 15.3166 2.45913 15.3263 2.31938 15.336ZM2.30395 12.3752C2.54664 12.354 2.74213 12.3372 2.2785 12.3793C2.28699 12.3779 2.29547 12.3766 2.30395 12.3752ZM2.39089 12.3609L2.16602 12.3805H2.2436C2.26381 12.3787 2.28404 12.377 2.30395 12.3752C2.33294 12.3705 2.36192 12.3658 2.39089 12.3609ZM1.89178 12.1917L2.17143 12.1735C1.75646 12.2099 1.733 12.2099 1.89178 12.1917ZM1.76006 12.0773C2.09746 12.0701 2.43485 12.0537 2.76683 12.021C2.67172 12.0279 2.50666 12.0363 2.32865 12.0454C2.12847 12.0557 1.91191 12.0668 1.76006 12.0773ZM2.62055 8.41009C2.6708 8.40596 2.71781 8.40207 2.75581 8.39893C2.88504 8.38823 2.91009 8.38616 2.60377 8.41292C2.60937 8.41198 2.61496 8.41104 2.62055 8.41009ZM2.68655 8.39857L2.45289 8.41743C2.46379 8.41805 2.47469 8.41847 2.4856 8.41868C2.4993 8.41836 2.51423 8.41795 2.53047 8.41743C2.56084 8.41497 2.59124 8.41249 2.62055 8.41009C2.64265 8.40633 2.66465 8.40249 2.68655 8.39857ZM2.18767 8.23045L2.46552 8.21229C2.05055 8.24679 2.02889 8.24679 2.18767 8.23045ZM3.06633 8.06161C2.73255 8.09429 2.39516 8.11244 2.05776 8.11789C2.36809 8.10518 2.86426 8.07795 3.06633 8.06161ZM3.58937 4.6808C3.59127 4.67738 3.59323 4.67398 3.59524 4.6706L3.34058 4.65406C3.18502 4.63628 3.20438 4.63766 3.5955 4.67016C3.60396 4.65598 3.61341 4.64212 3.62389 4.62865C3.6465 4.60102 3.67146 4.57577 3.69838 4.5531C3.31293 4.54051 2.93019 4.53722 3.46171 4.58098C3.1887 4.56138 2.91443 4.56699 2.64234 4.59779C2.87509 4.62502 3.10783 4.63954 3.34058 4.65406C3.38627 4.65912 3.44678 4.66558 3.51716 4.67309C3.54023 4.67555 3.56436 4.67813 3.58937 4.6808ZM3.72832 4.52955C3.73414 4.52528 3.74003 4.52112 3.746 4.51708C3.05881 4.46345 3.28748 4.48603 3.65859 4.52266C3.68136 4.52491 3.70466 4.52721 3.72832 4.52955ZM3.75334 4.51219C3.7734 4.49905 3.79425 4.48719 3.81577 4.47669L3.6076 4.46526C3.61708 4.46478 3.62656 4.46445 3.63604 4.46427C3.36057 4.45897 3.5645 4.48969 3.75334 4.51219ZM3.81781 4.4757C3.78413 4.47272 3.74491 4.46926 3.69962 4.46526C3.67844 4.4642 3.65724 4.46387 3.63604 4.46427C3.64895 4.46452 3.66291 4.46485 3.67797 4.46526C3.72535 4.46913 3.77278 4.47305 3.81588 4.47663M19.6204 3.25782C19.4966 3.23509 19.3832 3.2165 19.2792 3.20143C19.4818 3.41639 19.6549 3.65826 19.7934 3.92063C19.8228 3.9766 19.8764 4.0889 19.9134 4.20807C19.9767 4.24597 20.0363 4.28303 20.0912 4.31822C20.1161 4.33424 20.1414 4.35233 20.1669 4.37228C20.1978 4.35955 20.2296 4.35141 20.2427 4.3636C20.2546 4.3747 20.2381 4.39425 20.216 4.41259C20.2429 4.43577 20.27 4.46079 20.297 4.48742C20.3015 4.47768 20.3134 4.46203 20.3275 4.45255C20.2661 4.33455 20.2066 4.22381 20.2066 4.22381C20.2695 4.0973 19.9537 3.67486 19.8745 3.56885C19.8719 3.56533 19.8695 3.56216 19.8674 3.55936C19.8185 3.49961 19.7696 3.43996 19.7208 3.38036C19.6873 3.33949 19.6539 3.29865 19.6204 3.25782ZM20.3058 4.49612C20.3422 4.53241 20.3785 4.57154 20.4142 4.61288C20.3965 4.57793 20.3752 4.53703 20.3527 4.49612H20.3058ZM19.3174 3.89578C19.1744 3.7416 19.0218 3.59649 18.8606 3.46133C18.7343 3.35604 18.6044 3.25256 18.4745 3.15089C18.473 3.14963 18.4715 3.14837 18.4699 3.1471C18.322 3.15427 18.2256 3.17315 18.1536 3.18725C18.1131 3.19518 18.0804 3.20159 18.0506 3.20355C17.208 3.25619 17.1106 4.01141 17.9712 3.70097C18.359 3.56099 18.8632 3.69406 19.3174 3.89578ZM20.0334 4.91367C20.1579 4.93001 20.138 4.92819 19.8024 4.8937L20.0334 4.91367ZM19.5793 5.08613C19.4279 5.06904 19.4798 5.07437 19.5903 5.08613H19.5793ZM21.6879 8.35208C21.8106 8.36842 21.7907 8.36842 21.4551 8.33211L21.6879 8.35208ZM21.2869 8.51983C21.3459 8.52659 21.4046 8.53192 21.4642 8.53725H21.3992C21.38 8.53526 21.3608 8.53327 21.3422 8.53134C21.3238 8.52756 21.3053 8.52373 21.2869 8.51983ZM21.36 8.53497C21.3541 8.53377 21.3482 8.53256 21.3422 8.53134C21.1444 8.51084 21.0018 8.49626 21.36 8.53497ZM22.0325 12.0319L22.2616 12.0501C22.3915 12.0682 22.3717 12.0683 22.0325 12.0319ZM21.5363 11.8794C21.8106 11.9121 22.0866 11.9357 22.3645 11.9357C22.2396 11.9252 22.0618 11.9141 21.8974 11.9039C21.7507 11.8948 21.6146 11.8863 21.5363 11.8794ZM22.1961 11.6402C22.2024 11.6384 22.2081 11.6351 22.2129 11.6307C22.2233 11.6205 22.2299 11.607 22.2316 11.5924C22.2332 11.5779 22.2298 11.5632 22.2219 11.5509C22.184 11.4928 22.1065 11.5617 22.1462 11.6198C22.1493 11.6255 22.1538 11.6304 22.1591 11.6342C22.1644 11.6379 22.1705 11.6404 22.1769 11.6414C22.1833 11.6425 22.1899 11.6421 22.1961 11.6402ZM21.8622 10.3731C21.8566 10.371 21.8531 10.3697 21.8412 10.3763C21.8273 10.3849 21.828 10.3903 21.8294 10.4009C21.8303 10.4081 21.8315 10.4178 21.8286 10.4326C21.8279 10.4416 21.8291 10.4506 21.8322 10.4591C21.8353 10.4675 21.8403 10.4752 21.8467 10.4816C21.8629 10.4943 21.9134 10.5233 21.9134 10.4816C21.9184 10.4782 21.918 10.4748 21.9176 10.4711C21.9171 10.4668 21.9165 10.462 21.9242 10.4562C21.9354 10.4478 21.9229 10.4394 21.9166 10.4351C21.9147 10.4339 21.9134 10.433 21.9134 10.4326C21.9134 10.4323 21.9136 10.4317 21.9138 10.4308C21.9152 10.4252 21.9196 10.4074 21.9134 10.3763C21.9092 10.355 21.9056 10.3587 21.899 10.3653C21.8943 10.37 21.8881 10.3763 21.8791 10.3763C21.8705 10.3763 21.8658 10.3745 21.8622 10.3731ZM22.0433 11.3167C21.9663 11.3131 21.8893 11.3235 21.816 11.3475C21.7766 11.3687 21.8468 11.358 21.9462 11.3428C21.9744 11.3385 22.005 11.3338 22.0361 11.3294H22.3103C22.3006 11.3595 22.2976 11.3914 22.3016 11.4228C22.3057 11.4542 22.3167 11.4843 22.3338 11.5109C22.3444 11.5299 22.3593 11.5462 22.3772 11.5585C22.3952 11.5708 22.4157 11.5787 22.4371 11.5817C22.4586 11.5847 22.4805 11.5826 22.5011 11.5757C22.5217 11.5688 22.5403 11.5572 22.5557 11.5418C22.589 11.5063 22.6098 11.4607 22.6147 11.4121C22.6195 11.3635 22.6083 11.3146 22.5828 11.2731C22.5723 11.2541 22.5577 11.2378 22.5399 11.2255C22.5221 11.2133 22.5017 11.2053 22.4804 11.2023C22.459 11.1993 22.4373 11.2014 22.4168 11.2083C22.3964 11.2152 22.3779 11.2268 22.3627 11.2422L22.0433 11.3167ZM1.06048 8.79461C1.0452 8.78663 1.02847 8.78184 1.01131 8.78052C0.993509 8.77685 0.975159 8.77683 0.957352 8.78045C0.939545 8.78407 0.922645 8.79127 0.90766 8.8016C0.892675 8.81193 0.879911 8.8252 0.87013 8.8406C0.860349 8.85601 0.853749 8.87324 0.850727 8.89126C0.849756 8.90953 0.852411 8.92781 0.858529 8.94504C0.864647 8.96227 0.874111 8.97811 0.886368 8.99162C0.898625 9.00514 0.913427 9.01607 0.929921 9.02377C0.946415 9.03147 0.964267 9.0358 0.982438 9.0365C0.999463 9.03908 1.01683 9.03818 1.0335 9.03386C1.05017 9.02953 1.06581 9.02187 1.07947 9.01133C1.09314 9.00079 1.10455 8.98759 1.11303 8.97251C1.1215 8.95743 1.12687 8.94079 1.12881 8.92357C1.13075 8.90636 1.12923 8.88893 1.12432 8.87232C1.11942 8.85572 1.11124 8.84028 1.10027 8.82692C1.0893 8.81357 1.07577 8.80258 1.06048 8.79461ZM1.12858 11.312C1.16592 11.2715 1.19314 11.2227 1.20797 11.1696C1.22781 11.0734 1.17369 11.0008 1.06904 11.0335C1.01677 11.052 0.970002 11.0835 0.933092 11.1251C0.896183 11.1666 0.870332 11.2169 0.857945 11.2713C0.839903 11.3693 0.892226 11.4347 0.993263 11.402C1.04485 11.3832 1.09124 11.3524 1.12858 11.312ZM2.16061 9.02016C2.15519 8.99656 2.07942 8.98022 2.05957 8.98022C2.04513 8.9784 1.96214 8.97114 1.96755 8.99837C1.97296 9.0256 2.05776 9.03831 2.07039 9.04012C2.08302 9.04194 2.16602 9.04376 2.16061 9.02016ZM2.14797 9.25798C2.14978 9.21985 2.05055 9.20533 2.02529 9.20533C1.99822 9.20533 1.89719 9.20896 1.89538 9.25072C1.89358 9.29247 1.99642 9.30336 2.02168 9.30336C2.04694 9.30336 2.14617 9.2961 2.14797 9.25798ZM1.91523 10.6667C1.91703 10.625 1.9026 10.5415 1.84486 10.5524H1.85028C1.79434 10.5633 1.76187 10.6577 1.76006 10.6994C1.75826 10.7412 1.77811 10.8229 1.83223 10.8102C1.88636 10.7975 1.91342 10.7085 1.91523 10.6667ZM1.75465 11.4419C1.93869 11.379 2.09299 11.2497 2.18767 11.0788H2.19308C2.25623 10.9009 2.08663 10.8628 1.94409 10.8955C1.84731 10.9203 1.75754 10.9673 1.6818 11.0328C1.60605 11.0983 1.54639 11.1805 1.50747 11.2731C1.44974 11.4655 1.61031 11.4909 1.75465 11.4419ZM2.20391 9.49398C2.20571 9.56478 2.32299 9.56478 2.36809 9.56478H2.38072C2.42042 9.56297 2.52686 9.54118 2.52506 9.48309C2.52326 9.425 2.40598 9.41229 2.36268 9.41229C2.31938 9.41229 2.2021 9.42318 2.20391 9.49398ZM2.77224 12.297L2.7611 12.289C2.77754 12.2902 2.79411 12.2926 2.77224 12.297ZM10.193 20.1127C10.1914 20.1133 10.1931 20.1222 10.1931 20.1414L10.2039 20.1505C10.1989 20.1596 10.1917 20.1541 10.1878 20.1512C10.1846 20.1488 10.1836 20.1481 10.1877 20.1578C10.1936 20.172 10.1964 20.1738 10.2067 20.1805C10.2122 20.184 10.2197 20.1889 10.231 20.1977C10.2634 20.2231 10.3663 20.2721 10.3067 20.2104L10.2851 20.185C10.2785 20.1727 10.2704 20.1722 10.2624 20.1718C10.2551 20.1714 10.2478 20.171 10.2418 20.1614C10.2056 20.1305 10.1954 20.1117 10.193 20.1127ZM7.68518 20.844H7.66714L7.66894 20.8531C7.66894 20.8531 7.73209 20.8622 7.68518 20.844ZM10.0036 22.2038L9.84666 22.6195C9.98024 22.4188 10.0802 22.1974 10.1426 21.9641C10.148 21.9496 10.2256 21.5865 10.2256 21.5865L10.166 21.788L10.0036 22.2038ZM17.8015 1.54606C17.7113 1.46437 17.6085 1.47889 17.5796 1.60415C17.5696 1.66855 17.5743 1.73439 17.5934 1.79668C17.6124 1.85897 17.6454 1.91606 17.6897 1.96361C17.7763 2.04349 17.8791 2.03078 17.9134 1.90914C17.9264 1.84404 17.9229 1.7767 17.9034 1.71328C17.8839 1.64986 17.8488 1.59237 17.8015 1.54606ZM17.4353 11.1424C17.4371 11.0879 17.3685 11.0861 17.3685 11.1424H17.3667C17.3649 11.2005 17.4335 11.1968 17.4353 11.1424ZM18.8787 12.985C18.8743 12.9727 18.8743 12.9592 18.8787 12.9469L18.8769 12.9451C18.8895 12.926 18.8758 12.9278 18.8613 12.9298C18.8592 12.9301 18.8572 12.9304 18.8552 12.9306C18.847 12.9315 18.8453 12.9237 18.8423 12.9106C18.8394 12.8977 18.8353 12.8796 18.8227 12.8598C18.8072 12.8352 18.8026 12.8436 18.795 12.8576C18.7903 12.8663 18.7844 12.8771 18.774 12.8834C18.7636 12.8897 18.7575 12.8911 18.7525 12.8923C18.7446 12.8941 18.7397 12.8953 18.7253 12.9142C18.7105 12.9337 18.7158 12.9394 18.724 12.9483C18.7288 12.9535 18.7346 12.9598 18.7379 12.9705C18.7409 12.9822 18.7465 12.993 18.7544 13.0022C18.7622 13.0113 18.772 13.0185 18.783 13.0232H18.7957C18.7975 13.0235 18.7993 13.0239 18.8012 13.0243C18.8363 13.0315 18.8787 13.0402 18.8787 12.985ZM19.7992 18.2464C19.7855 18.2444 19.7693 18.242 19.7988 18.2498H19.8133L19.8115 18.2479C19.8099 18.2479 19.8047 18.2472 19.7992 18.2464ZM20.1657 10.9219C20.1848 10.9346 20.2072 10.9412 20.2301 10.9409L20.2282 10.9391C20.2571 10.94 20.2853 10.9296 20.3065 10.9099C20.3278 10.8902 20.3405 10.8628 20.3419 10.8338C20.3434 10.8108 20.3379 10.788 20.3262 10.7682C20.3146 10.7484 20.2973 10.7326 20.2766 10.7229C20.2559 10.7132 20.2327 10.7099 20.2102 10.7136C20.1876 10.7173 20.1667 10.7278 20.1501 10.7437C20.1336 10.7595 20.1221 10.78 20.1173 10.8025C20.1125 10.825 20.1146 10.8484 20.1232 10.8697C20.1319 10.891 20.1467 10.9092 20.1657 10.9219ZM20.894 15.6337H20.9103L20.9084 15.6319C20.9076 15.6319 20.904 15.6314 20.8997 15.6307C20.8867 15.6287 20.8669 15.6255 20.894 15.6337ZM21.5616 12.1155H21.5471C21.5093 12.1064 21.5616 12.1155 21.5616 12.1155ZM21.5019 12.6665C21.5094 12.732 21.5409 13.007 21.5724 12.9832C21.641 12.9342 21.6319 12.7835 21.5814 12.72L21.4551 12.5748L21.5002 12.6528C21.5002 12.6519 21.5008 12.657 21.5019 12.6665ZM23.3249 12.6943C23.3332 12.6652 23.3406 12.6392 23.3406 12.6201V12.6129C23.3536 12.6027 23.364 12.5896 23.3709 12.5746C23.3778 12.5596 23.3811 12.5431 23.3804 12.5266C23.3797 12.51 23.375 12.4939 23.3669 12.4795C23.3587 12.4652 23.3472 12.453 23.3333 12.444C23.3236 12.4407 23.3133 12.4396 23.3031 12.4408C23.2929 12.4419 23.2831 12.4453 23.2743 12.4506C23.2656 12.456 23.2581 12.4632 23.2524 12.4718C23.2467 12.4804 23.2429 12.4901 23.2413 12.5003C23.2397 12.5056 23.2397 12.5113 23.2413 12.5167H23.2269L23.1872 12.5003C23.1619 12.4894 23.0447 12.5003 23.0447 12.5185C23.0447 12.5311 23.1088 12.5262 23.1638 12.522C23.1881 12.5202 23.2107 12.5185 23.2251 12.5185H23.2377C23.2367 12.5378 23.2405 12.5572 23.2485 12.5748C23.2371 12.5756 23.2257 12.5756 23.2143 12.5748C23.1692 12.5657 23.1692 12.6129 23.1692 12.6129L23.254 12.5911C23.2598 12.6004 23.2678 12.6082 23.2772 12.6139C23.2866 12.6196 23.2972 12.6229 23.3081 12.6238V12.7599C23.2973 12.8032 23.2925 12.8478 23.2936 12.8925C23.2953 12.9048 23.2962 12.8899 23.2977 12.8647C23.2995 12.8345 23.3022 12.7897 23.3081 12.7599C23.3126 12.7373 23.3189 12.715 23.3249 12.6943ZM23.4705 12.6274C23.4777 12.5947 23.4398 12.5729 23.429 12.6092V12.602C23.4199 12.6347 23.4632 12.6601 23.4705 12.6274ZM8.99325 14.0759C8.97077 14.1137 8.9601 14.1574 8.96264 14.2014C8.96334 14.2293 8.96949 14.2568 8.98076 14.2823C8.99202 14.3078 9.00816 14.3308 9.02827 14.35C9.04838 14.3692 9.07205 14.3843 9.09794 14.3943C9.12383 14.4043 9.15142 14.4091 9.17914 14.4083C9.22292 14.4086 9.26577 14.3957 9.30214 14.3711C9.3385 14.3466 9.36669 14.3117 9.38306 14.2708C9.39943 14.2299 9.40321 14.1851 9.39392 14.142C9.38462 14.099 9.36268 14.0598 9.33095 14.0294C9.29921 13.9991 9.25913 13.979 9.21593 13.9719C9.17273 13.9648 9.1284 13.9709 9.08869 13.9894C9.04898 14.008 9.01573 14.0381 8.99325 14.0759ZM7.97676 14.6657C7.95356 14.7046 7.94252 14.7497 7.94504 14.795C7.94693 14.8535 7.9717 14.9088 8.01395 14.9489C8.05619 14.989 8.11249 15.0107 8.17057 15.0092C8.2157 15.0092 8.25977 14.9955 8.29708 14.9699C8.33439 14.9444 8.36324 14.9082 8.37987 14.866C8.39651 14.8238 8.40017 14.7775 8.39039 14.7332C8.38062 14.6888 8.35785 14.6485 8.32504 14.6173C8.29222 14.5861 8.25087 14.5656 8.20632 14.5583C8.16177 14.551 8.11608 14.5574 8.07516 14.5765C8.03424 14.5957 7.99996 14.6267 7.97676 14.6657ZM4.97398 15.4774C4.94761 15.5211 4.93485 15.5718 4.93738 15.6229C4.93927 15.689 4.96708 15.7517 5.01474 15.7973C5.0624 15.8428 5.12604 15.8676 5.19178 15.8661C5.24262 15.8661 5.29228 15.8507 5.33434 15.8219C5.3764 15.7932 5.40895 15.7525 5.42777 15.7049C5.4466 15.6574 5.45085 15.6053 5.43996 15.5554C5.42908 15.5054 5.40357 15.4598 5.36672 15.4246C5.32986 15.3894 5.28336 15.366 5.23321 15.3576C5.18306 15.3493 5.13156 15.3562 5.08535 15.3775C5.03915 15.3988 5.00036 15.4336 4.97398 15.4774ZM5.2286 18.1095C5.2122 18.137 5.2044 18.1688 5.20621 18.2008C5.20668 18.221 5.21111 18.241 5.21926 18.2595C5.2274 18.2781 5.23909 18.2948 5.25367 18.3088C5.26825 18.3228 5.28542 18.3338 5.30421 18.3411C5.323 18.3484 5.34304 18.3519 5.36318 18.3514C5.39503 18.3518 5.42624 18.3424 5.45275 18.3247C5.47926 18.3069 5.49984 18.2815 5.51183 18.2518C5.52382 18.2221 5.52665 18.1895 5.51996 18.1581C5.51327 18.1268 5.49737 18.0982 5.47433 18.0761C5.45128 18.054 5.42215 18.0393 5.39073 18.0341C5.35931 18.0288 5.32704 18.0332 5.29813 18.0467C5.26921 18.0601 5.24499 18.082 5.2286 18.1095ZM4.61198 16.3106C4.60549 16.3256 4.60202 16.3417 4.60179 16.3581C4.60202 16.3745 4.60549 16.3906 4.61198 16.4056C4.61848 16.4206 4.62788 16.4342 4.63964 16.4455C4.65139 16.4568 4.66526 16.4657 4.68045 16.4716C4.69563 16.4774 4.71183 16.4802 4.72809 16.4797C4.76015 16.4797 4.7909 16.4669 4.81357 16.4441C4.83624 16.4213 4.84897 16.3904 4.84897 16.3581C4.84897 16.3258 4.83624 16.2949 4.81357 16.2721C4.7909 16.2493 4.76015 16.2365 4.72809 16.2365C4.71183 16.236 4.69563 16.2388 4.68045 16.2446C4.66526 16.2505 4.65139 16.2594 4.63964 16.2707C4.62788 16.282 4.61848 16.2956 4.61198 16.3106ZM12.2636 20.0162C12.242 20.0522 12.2316 20.094 12.2337 20.136C12.2344 20.1629 12.2404 20.1895 12.2513 20.2141C12.2622 20.2387 12.2778 20.2609 12.2972 20.2795C12.3167 20.298 12.3396 20.3125 12.3646 20.3222C12.3896 20.3318 12.4162 20.3364 12.443 20.3357C12.4848 20.3356 12.5257 20.323 12.5603 20.2993C12.5949 20.2756 12.6217 20.2421 12.6372 20.203C12.6527 20.1639 12.6561 20.121 12.6471 20.0799C12.6381 20.0387 12.6171 20.0013 12.5867 19.9723C12.5564 19.9433 12.5181 19.9242 12.4768 19.9173C12.4355 19.9105 12.3931 19.9162 12.3551 19.9339C12.3171 19.9515 12.2852 19.9802 12.2636 20.0162ZM13.9146 20.216C13.889 20.2586 13.8767 20.3078 13.8792 20.3575C13.8799 20.3893 13.8868 20.4208 13.8997 20.4499C13.9125 20.4791 13.9309 20.5054 13.9539 20.5273C13.9769 20.5492 14.004 20.5664 14.0336 20.5777C14.0632 20.5891 14.0947 20.5945 14.1264 20.5935C14.1758 20.5934 14.224 20.5785 14.2649 20.5505C14.3058 20.5226 14.3374 20.483 14.3557 20.4368C14.374 20.3906 14.3781 20.3399 14.3675 20.2914C14.3569 20.2428 14.332 20.1986 14.2962 20.1644C14.2603 20.1301 14.2151 20.1075 14.1664 20.0994C14.1176 20.0913 14.0676 20.0981 14.0227 20.1188C13.9778 20.1396 13.9401 20.1735 13.9146 20.216ZM12.3461 18.2939C12.3123 18.3279 12.2933 18.3741 12.2933 18.4222C12.2933 18.4704 12.3123 18.5166 12.3461 18.5506C12.3799 18.5847 12.4258 18.6038 12.4737 18.6038C12.5215 18.6038 12.5674 18.5847 12.6013 18.5506C12.6351 18.5166 12.6541 18.4704 12.6541 18.4222C12.6541 18.3741 12.6351 18.3279 12.6013 18.2939C12.5674 18.2598 12.5215 18.2407 12.4737 18.2407C12.4258 18.2407 12.3799 18.2598 12.3461 18.2939ZM14.4739 17.2978C14.4374 17.3346 14.4168 17.3845 14.4168 17.4365C14.4168 17.4885 14.4374 17.5383 14.4739 17.5751C14.5105 17.6119 14.56 17.6325 14.6117 17.6325C14.6634 17.6325 14.7129 17.6119 14.7495 17.5751C14.786 17.5383 14.8066 17.4885 14.8066 17.4365C14.8066 17.3845 14.786 17.3346 14.7495 17.2978C14.7129 17.2611 14.6634 17.2404 14.6117 17.2404C14.56 17.2404 14.5105 17.2611 14.4739 17.2978ZM12.4637 11.8758C12.4605 11.6918 12.4586 11.5831 11.7845 11.8087L11.7899 11.8105C11.3286 12.0562 11.25 12.03 11.0826 11.9742C10.9397 11.9266 10.732 11.8574 10.1661 11.9176C9.27851 11.9815 8.42085 12.2673 7.6708 12.749C6.6244 13.3969 6.49855 13.8784 6.4068 14.2294C6.35997 14.4086 6.32203 14.5538 6.17509 14.6698C5.81785 14.9512 5.30003 14.6698 5.46602 14.1251C5.49157 14.0404 5.54196 13.9583 5.59058 13.879C5.66903 13.7512 5.7429 13.6309 5.70057 13.5188C5.53639 13.0849 5.89002 12.7999 6.17148 12.671C6.25453 12.6321 6.26728 12.5449 6.28084 12.4521C6.29261 12.3716 6.30499 12.287 6.36453 12.2262C6.42342 12.1661 6.56008 12.1279 6.7081 12.0865C6.88208 12.0378 7.07174 11.9848 7.16922 11.8867C7.91798 11.1061 8.47369 10.9318 9.49669 10.9554C9.79467 10.9626 10.0827 10.9019 10.3875 10.8376C10.7711 10.7567 11.1812 10.6703 11.6708 10.7067C12.0939 10.7381 12.2942 10.6754 12.4712 10.6199C12.6927 10.5506 12.8778 10.4926 13.4173 10.645C13.9578 10.7992 15.1407 10.6579 16.1003 10.5433C16.6655 10.4758 17.1532 10.4176 17.3866 10.4344C17.3015 10.6946 16.863 11.0283 16.6329 11.2034C16.6046 11.2249 16.5794 11.2441 16.5585 11.2604C15.9912 11.7013 15.8668 11.5956 15.7663 11.5103C15.6897 11.4453 15.627 11.3921 15.3929 11.6017C15.0681 11.8822 15.0384 11.8875 14.8511 11.9206C14.796 11.9303 14.7273 11.9425 14.6334 11.9648C14.7777 11.5817 14.4421 11.5236 14.2256 11.7832C14.1469 11.8913 14.0341 11.9693 13.9055 12.0043C13.777 12.0393 13.6404 12.0292 13.5183 11.9757C13.7078 11.6907 13.5129 11.3203 13.0925 11.7161C12.9276 11.8713 12.6739 11.8951 12.5325 11.9084C12.5052 11.911 12.4821 11.9131 12.4647 11.9158C12.4642 11.9021 12.4639 11.8888 12.4637 11.8758ZM8.9783 12.6821C8.96664 12.6623 8.96119 12.6395 8.96264 12.6165C8.96287 12.6021 8.96596 12.5878 8.97173 12.5745C8.9775 12.5613 8.98583 12.5493 8.99625 12.5394C9.00666 12.5294 9.01894 12.5216 9.03238 12.5165C9.04581 12.5113 9.06013 12.5089 9.0745 12.5094C9.09735 12.5091 9.11977 12.5157 9.13883 12.5284C9.15788 12.5411 9.17269 12.5593 9.18132 12.5806C9.18995 12.6019 9.19201 12.6253 9.18721 12.6478C9.18241 12.6703 9.17099 12.6908 9.15443 12.7066C9.13787 12.7225 9.11695 12.7329 9.0944 12.7366C9.07184 12.7403 9.04869 12.7371 9.02798 12.7274C9.00727 12.7177 8.98996 12.7019 8.9783 12.6821ZM8.23006 13.027C8.20758 12.9892 8.19691 12.9455 8.19944 12.9015C8.20014 12.8736 8.2063 12.8462 8.21756 12.8207C8.22883 12.7952 8.24497 12.7721 8.26508 12.7529C8.28519 12.7337 8.30886 12.7187 8.33474 12.7086C8.36063 12.6986 8.38823 12.6939 8.41595 12.6946C8.45973 12.6943 8.50258 12.7072 8.53894 12.7318C8.57531 12.7563 8.6035 12.7913 8.61987 12.8321C8.63624 12.873 8.64002 12.9178 8.63072 12.9609C8.62143 13.0039 8.59949 13.0432 8.56775 13.0735C8.53601 13.1038 8.49594 13.1239 8.45274 13.131C8.40954 13.1381 8.36521 13.132 8.3255 13.1135C8.28579 13.095 8.25254 13.0648 8.23006 13.027ZM9.07358 16.223C9.05826 16.249 9.05104 16.279 9.05285 16.3091C9.05426 16.3478 9.07077 16.3843 9.09881 16.4108C9.12684 16.4374 9.16414 16.4517 9.2026 16.4507C9.23259 16.4506 9.26187 16.4415 9.28665 16.4245C9.31144 16.4075 9.33058 16.3834 9.3416 16.3554C9.35262 16.3273 9.35501 16.2966 9.34846 16.2671C9.34192 16.2377 9.32673 16.2109 9.30488 16.1902C9.28302 16.1695 9.25551 16.156 9.22589 16.1512C9.19627 16.1465 9.16592 16.1508 9.13877 16.1636C9.11161 16.1764 9.0889 16.1971 9.07358 16.223ZM9.32709 16.8414C9.30222 16.8827 9.29028 16.9307 9.29281 16.979C9.29351 17.0097 9.30023 17.0401 9.31258 17.0682C9.32493 17.0963 9.34267 17.1218 9.36479 17.143C9.38691 17.1642 9.41297 17.1809 9.44148 17.192C9.46999 17.2031 9.5004 17.2084 9.53097 17.2077C9.57903 17.208 9.62607 17.1938 9.666 17.1669C9.70593 17.14 9.7369 17.1016 9.75491 17.0568C9.77293 17.0119 9.77714 16.9627 9.76702 16.9154C9.75689 16.8681 9.73289 16.825 9.69813 16.7916C9.66336 16.7582 9.61944 16.7361 9.57203 16.7281C9.52463 16.7202 9.47594 16.7267 9.43227 16.7469C9.3886 16.7671 9.35195 16.8 9.32709 16.8414ZM8.45364 17.072C8.4328 17.1068 8.42281 17.1471 8.42497 17.1878C8.42686 17.2401 8.44909 17.2896 8.48688 17.3256C8.52468 17.3616 8.57502 17.3812 8.62705 17.3802C8.66746 17.3801 8.70693 17.3679 8.74036 17.345C8.77378 17.3222 8.79963 17.2897 8.81455 17.2519C8.82947 17.2142 8.83279 17.1727 8.82408 17.133C8.81536 17.0933 8.79502 17.0571 8.76566 17.0292C8.73631 17.0012 8.6993 16.9828 8.65941 16.9762C8.61953 16.9696 8.5786 16.9752 8.54192 16.9923C8.50524 17.0094 8.47449 17.0371 8.45364 17.072ZM15.4814 14.1812C15.4756 14.1944 15.4726 14.2087 15.4723 14.2232C15.4726 14.2376 15.4756 14.2519 15.4814 14.2651C15.4872 14.2784 15.4955 14.2903 15.5059 14.3003C15.5164 14.3103 15.5286 14.3181 15.5421 14.3232C15.5555 14.3284 15.5698 14.3308 15.5842 14.3303C15.6124 14.3303 15.6395 14.319 15.6595 14.2989C15.6794 14.2788 15.6906 14.2516 15.6906 14.2232C15.6906 14.1948 15.6794 14.1675 15.6595 14.1474C15.6395 14.1273 15.6124 14.1161 15.5842 14.1161C15.5698 14.1156 15.5555 14.118 15.5421 14.1231C15.5286 14.1283 15.5164 14.136 15.5059 14.146C15.4955 14.156 15.4872 14.1679 15.4814 14.1812ZM16.4245 14.42C16.4191 14.4323 16.4162 14.4457 16.4159 14.4592C16.4162 14.4727 16.4191 14.486 16.4245 14.4984C16.4299 14.5107 16.4377 14.5219 16.4474 14.5312C16.4572 14.5405 16.4687 14.5477 16.4812 14.5525C16.4938 14.5573 16.5072 14.5595 16.5206 14.559C16.5476 14.5595 16.5736 14.5493 16.5932 14.5306C16.6128 14.512 16.6243 14.4863 16.6252 14.4592C16.625 14.4457 16.6221 14.4323 16.6167 14.42C16.6113 14.4076 16.6035 14.3964 16.5937 14.3872C16.584 14.3779 16.5725 14.3706 16.5599 14.3658C16.5474 14.3611 16.534 14.3588 16.5206 14.3593C16.5072 14.3588 16.4938 14.3611 16.4812 14.3658C16.4687 14.3706 16.4572 14.3779 16.4474 14.3872C16.4377 14.3964 16.4299 14.4076 16.4245 14.42ZM15.6364 14.4877C15.6089 14.5337 15.5957 14.5871 15.5986 14.6407C15.5996 14.675 15.6072 14.7089 15.6211 14.7402C15.6351 14.7716 15.655 14.7999 15.6798 14.8235C15.7046 14.8471 15.7338 14.8655 15.7657 14.8778C15.7976 14.89 15.8315 14.8958 15.8656 14.8949C15.9191 14.8948 15.9712 14.8786 16.0154 14.8484C16.0596 14.8182 16.0937 14.7753 16.1134 14.7254C16.1331 14.6754 16.1375 14.6207 16.126 14.5682C16.1145 14.5157 16.0876 14.4679 16.0488 14.431C16.01 14.3941 15.961 14.3697 15.9083 14.361C15.8556 14.3524 15.8015 14.3598 15.7531 14.3824C15.7046 14.405 15.664 14.4416 15.6364 14.4877ZM16.5318 15.7213C16.5004 15.753 16.4827 15.7959 16.4827 15.8407C16.4827 15.8855 16.5004 15.9284 16.5318 15.9601C16.5633 15.9918 16.606 16.0095 16.6505 16.0095C16.695 16.0095 16.7377 15.9918 16.7691 15.9601C16.8006 15.9284 16.8183 15.8855 16.8183 15.8407C16.8183 15.7959 16.8006 15.753 16.7691 15.7213C16.7377 15.6897 16.695 15.6719 16.6505 15.6719C16.606 15.6719 16.5633 15.6897 16.5318 15.7213ZM16.9753 14.3663C16.9597 14.392 16.9522 14.4218 16.9536 14.4519C16.9541 14.4712 16.9583 14.4903 16.9661 14.5079C16.9739 14.5256 16.985 14.5415 16.9989 14.5548C17.0128 14.5682 17.0292 14.5786 17.0471 14.5855C17.0651 14.5925 17.0842 14.5958 17.1034 14.5953C17.1333 14.5953 17.1625 14.5862 17.1873 14.5693C17.212 14.5524 17.2312 14.5285 17.2423 14.5005C17.2534 14.4725 17.2559 14.4419 17.2495 14.4125C17.2431 14.3831 17.2281 14.3563 17.2064 14.3355C17.1848 14.3147 17.1574 14.301 17.1279 14.296C17.0984 14.2911 17.0681 14.2951 17.0409 14.3076C17.0137 14.3202 16.9908 14.3406 16.9753 14.3663ZM16.3166 14.9003C16.2801 14.9609 16.2626 15.0311 16.2662 15.1018C16.2686 15.193 16.3067 15.2795 16.3723 15.3425C16.4379 15.4054 16.5256 15.4396 16.6162 15.4377C16.6866 15.438 16.7555 15.417 16.8139 15.3774C16.8723 15.3379 16.9176 15.2816 16.9439 15.2159C16.9702 15.1502 16.9763 15.078 16.9614 15.0088C16.9465 14.9395 16.9113 14.8764 16.8604 14.8275C16.8094 14.7786 16.745 14.7462 16.6756 14.7345C16.6061 14.7228 16.5348 14.7324 16.4708 14.7619C16.4068 14.7915 16.3531 14.8397 16.3166 14.9003ZM15.459 6.20596C15.4426 6.17296 15.4365 6.1357 15.4416 6.09915C15.443 6.07687 15.4488 6.05509 15.4587 6.0351C15.4685 6.0151 15.4823 5.9973 15.4991 5.98275C15.5159 5.96819 15.5355 5.95718 15.5566 5.95036C15.5777 5.94353 15.6 5.94104 15.6221 5.94302C15.6588 5.94338 15.6945 5.95499 15.7244 5.9763C15.7544 5.9976 15.7772 6.02759 15.7898 6.06227C15.8024 6.09694 15.8041 6.13465 15.7949 6.17037C15.7856 6.2061 15.7658 6.23813 15.7379 6.2622C15.7101 6.28627 15.6757 6.30123 15.6392 6.3051C15.6027 6.30896 15.5659 6.30155 15.5337 6.28383C15.5015 6.26612 15.4755 6.23895 15.459 6.20596ZM15.7094 7.2379C15.6924 7.21385 15.6827 7.18527 15.6816 7.15572C15.6811 7.11511 15.6966 7.07593 15.7246 7.04671C15.7526 7.01748 15.791 7.00055 15.8314 6.9996C15.8607 6.99962 15.8895 7.00833 15.914 7.02466C15.9385 7.04099 15.9577 7.06421 15.9691 7.09143C15.9806 7.11864 15.9839 7.14866 15.9785 7.17773C15.9732 7.2068 15.9594 7.23364 15.939 7.25492C15.9186 7.27619 15.8924 7.29095 15.8638 7.29737C15.8351 7.30378 15.8051 7.30157 15.7777 7.29099C15.7503 7.28042 15.7265 7.26195 15.7094 7.2379ZM15.7928 7.89651C15.7718 7.85314 15.7644 7.80432 15.7718 7.75663C15.7764 7.69945 15.8033 7.64641 15.8465 7.60903C15.8897 7.57164 15.9459 7.55292 16.0028 7.55693C16.0507 7.55676 16.0976 7.5714 16.137 7.59886C16.1765 7.62633 16.2066 7.6653 16.2234 7.71053C16.2401 7.75576 16.2427 7.80506 16.2307 7.8518C16.2188 7.89854 16.1928 7.94047 16.1565 7.97193C16.1201 8.00339 16.075 8.02286 16.0273 8.02774C15.9795 8.03261 15.9315 8.02264 15.8896 7.99918C15.8476 7.97571 15.8139 7.93988 15.7928 7.89651ZM16.3615 7.42526C16.3283 7.35948 16.3158 7.28509 16.3257 7.212C16.3322 7.12221 16.3738 7.03868 16.4415 6.97978C16.5092 6.92088 16.5973 6.89144 16.6866 6.89793C16.7599 6.89861 16.8312 6.92173 16.8912 6.96423C16.9511 7.00673 16.9967 7.06658 17.022 7.13582C17.0473 7.20506 17.051 7.28041 17.0327 7.35183C17.0143 7.42325 16.9748 7.48735 16.9193 7.53561C16.8639 7.58387 16.7952 7.61399 16.7223 7.62196C16.6494 7.62993 16.5758 7.61538 16.5114 7.58024C16.4469 7.54511 16.3946 7.49105 16.3615 7.42526ZM12.0389 9.70276C11.9685 9.70276 11.9108 9.66827 11.9108 9.6247C11.9108 9.58113 11.9703 9.54482 12.0389 9.54482C12.1074 9.54482 12.1652 9.58113 12.1652 9.6247C12.1652 9.66827 12.1092 9.70276 12.0389 9.70276ZM17.2637 9.45906C17.242 9.42515 17.2307 9.38548 17.2315 9.34512C17.2317 9.31866 17.2371 9.2925 17.2474 9.26815C17.2577 9.24379 17.2726 9.22171 17.2914 9.20316C17.3102 9.18462 17.3324 9.16998 17.3568 9.16007C17.3811 9.15016 17.4072 9.14519 17.4335 9.14543C17.4736 9.14543 17.5129 9.15746 17.5462 9.17996C17.5795 9.20247 17.6054 9.23444 17.6205 9.27181C17.6357 9.30917 17.6395 9.35024 17.6314 9.38978C17.6233 9.42931 17.6037 9.46553 17.5751 9.49382C17.5465 9.5221 17.5101 9.54118 17.4707 9.54861C17.4313 9.55604 17.3905 9.55149 17.3537 9.53554C17.3168 9.5196 17.2855 9.49297 17.2637 9.45906ZM19.1565 6.11165C19.1401 6.13643 19.1313 6.16556 19.1313 6.19536C19.1313 6.23533 19.1471 6.27365 19.1752 6.30191C19.2033 6.33017 19.2413 6.34605 19.2811 6.34605C19.3107 6.34605 19.3396 6.33721 19.3643 6.32065C19.3889 6.30409 19.4081 6.28056 19.4194 6.25303C19.4308 6.22549 19.4337 6.1952 19.4279 6.16597C19.4222 6.13674 19.4079 6.10989 19.387 6.08882C19.366 6.06774 19.3393 6.05339 19.3103 6.04758C19.2812 6.04177 19.2511 6.04475 19.2238 6.05615C19.1964 6.06756 19.173 6.08687 19.1565 6.11165ZM17.9405 4.50362C17.9171 4.46675 17.9052 4.42368 17.9062 4.37994C17.9065 4.35157 17.9123 4.32353 17.9233 4.29741C17.9343 4.27129 17.9503 4.2476 17.9704 4.22771C17.9905 4.20782 18.0143 4.19211 18.0404 4.18147C18.0666 4.17083 18.0946 4.16548 18.1227 4.16572C18.1662 4.16537 18.2088 4.1781 18.2451 4.20226C18.2813 4.22643 18.3096 4.26094 18.3262 4.30136C18.3428 4.34179 18.3471 4.38629 18.3384 4.42916C18.3298 4.47204 18.3086 4.51133 18.2776 4.54201C18.2466 4.57268 18.2071 4.59335 18.1644 4.60135C18.1216 4.60934 18.0775 4.60432 18.0376 4.5869C17.9977 4.56949 17.9639 4.54049 17.9405 4.50362ZM16.61 3.97691C16.5884 3.94088 16.578 3.89915 16.5801 3.8571C16.5808 3.83016 16.5868 3.80362 16.5977 3.779C16.6086 3.75438 16.6242 3.73216 16.6436 3.71362C16.6631 3.69507 16.686 3.68056 16.711 3.67092C16.736 3.66127 16.7626 3.65668 16.7894 3.6574C16.8313 3.65746 16.8721 3.67014 16.9067 3.69379C16.9414 3.71745 16.9681 3.751 16.9836 3.79012C16.9991 3.82924 17.0025 3.87213 16.9935 3.91325C16.9845 3.95437 16.9635 3.99183 16.9331 4.0208C16.9028 4.04977 16.8645 4.06892 16.8232 4.07577C16.7819 4.08263 16.7395 4.07687 16.7015 4.05925C16.6635 4.04163 16.6317 4.01295 16.61 3.97691ZM7.06638 7.2356L7.13855 7.33182C7.10968 7.29007 7.08262 7.25557 7.06638 7.2356ZM6.55759 7.05588L7.17102 7.38265C7.25763 7.52062 7.32439 7.69491 7.11871 7.6713C6.87694 7.64226 6.50165 7.32819 6.55759 7.05588ZM6.55759 7.05588C6.62073 6.7527 7.05916 7.23742 7.13855 7.33727C7.05916 7.22834 6.62073 6.7527 6.55759 7.05588Z" fill="#E42016"/>
</svg>
